<svg version="1.1" id="Layer_1" xmlns="http://www.w3.org/2000/svg" xmlns:xlink="http://www.w3.org/1999/xlink" x="0px" y="0px"
	 width="100%" viewBox="0 0 892 588" enable-background="new 0 0 892 588" xml:space="preserve">
<path fill="#FFFFFF" opacity="1.000000" stroke="none" 
	d="
M569.000000,589.000000 
	C380.833344,589.000000 193.166672,588.986938 5.500053,589.093689 
	C1.750725,589.095825 0.904294,588.249268 0.906360,584.499939 
	C1.012691,391.500000 1.012691,198.500000 0.906359,5.500051 
	C0.904294,1.750737 1.750871,0.905508 5.500032,0.906801 
	C299.833344,1.008336 594.166687,1.008336 888.499939,0.906801 
	C892.249146,0.905508 893.095703,1.750737 893.093628,5.500051 
	C892.987305,198.500000 892.987305,391.500000 893.093628,584.499939 
	C893.095703,588.249268 892.249634,589.098816 888.499878,589.094666 
	C782.166687,588.977051 675.833313,589.000000 569.000000,589.000000 
z"/>
<path fill="#CDCD06" opacity="1.000000" stroke="none" 
	d="
M86.399895,367.305725 
	C81.068092,353.131561 76.092278,339.304016 72.666824,324.934784 
	C65.874771,296.443146 63.965019,267.698883 66.848610,238.548630 
	C69.063881,216.154358 74.065010,194.454575 81.876762,173.389221 
	C91.921082,146.303482 106.067001,121.584007 124.349693,99.165466 
	C146.048035,72.558609 171.956238,51.087975 202.080231,34.747330 
	C221.418716,24.257236 241.644287,15.927153 263.129486,10.750562 
	C266.211639,10.007958 267.967560,10.324144 270.054596,12.467866 
	C280.972015,23.681601 291.352600,35.356743 300.898346,47.762615 
	C328.034088,83.028969 348.230469,121.906189 361.041931,164.520172 
	C367.279968,185.269440 371.867279,206.379471 374.188812,228.006531 
	C375.949249,244.406631 377.242706,260.812408 376.828156,277.270294 
	C376.070099,307.365082 371.773743,337.004852 363.981476,366.502808 
	C365.442902,368.504303 367.394012,367.977356 369.157959,367.978058 
	C445.099518,368.008331 521.041077,368.001404 596.982605,368.002441 
	C678.570862,368.003601 760.159058,367.999573 841.747314,368.010345 
	C843.240845,368.010529 844.749939,367.893250 846.642456,368.604523 
	C847.957520,375.479889 847.957520,375.482452 841.403992,375.483826 
	C830.909363,375.486053 820.414246,375.421997 809.920105,375.493561 
	C550.093750,377.265656 290.263885,376.068359 30.435879,376.413483 
	C28.270330,376.416382 26.104406,376.439392 23.939287,376.400299 
	C17.725374,376.287994 17.510920,376.063629 17.679813,369.437164 
	C19.718483,367.440613 21.974035,368.036499 24.079401,368.032104 
	C46.890274,367.984344 69.708168,368.355072 92.510315,367.906097 
	C115.495300,367.453522 138.474457,367.819244 161.454590,367.580597 
	C166.282684,367.530457 171.087006,368.357025 176.411362,367.848358 
	C178.890533,367.477966 180.893692,367.591980 182.891388,367.591858 
	C238.389893,367.588013 293.888397,367.585541 349.799500,367.589233 
	C351.190643,367.558655 352.130463,367.838501 353.091095,367.944458 
	C354.054443,368.050690 355.027313,367.999359 355.996216,368.005463 
	C355.086548,367.941772 354.157898,367.997681 353.009155,367.357422 
	C351.308411,364.867767 352.196533,362.581116 352.785553,360.367584 
	C358.189911,340.057465 362.235413,319.469513 364.279541,298.565613 
	C366.322601,277.673004 366.258881,256.716949 364.836487,235.750259 
	C363.024078,209.034302 357.935059,182.950928 350.227539,157.363083 
	C340.611847,125.440384 326.700500,95.485298 308.688232,67.414803 
	C298.140015,50.976383 286.338898,35.514214 273.375641,20.922375 
	C272.822296,20.299530 272.250977,19.694105 271.673340,19.094093 
	C266.554230,13.776728 266.262604,13.653863 260.697052,18.187031 
	C244.263733,31.571981 228.920654,46.093185 215.507812,62.550377 
	C179.737015,106.440178 158.532822,156.499756 152.216614,212.791504 
	C146.518997,263.570129 154.276550,312.320190 174.572433,359.144592 
	C175.617676,361.556061 177.145203,363.878479 176.178223,367.067322 
	C174.050903,368.379456 172.031342,367.862000 169.640671,367.916779 
	C168.935028,367.800995 168.658447,367.724640 168.020691,367.414978 
	C161.605545,355.248016 157.308792,342.630646 153.685135,329.812958 
	C147.093292,306.496216 142.476273,282.830383 142.560150,258.034729 
	C142.544815,256.772461 142.436752,255.944901 142.030273,254.736694 
	C140.840591,244.668701 142.186874,235.048767 142.845200,225.477264 
	C143.916489,209.901764 146.222488,194.430740 150.261902,178.856537 
	C150.516663,177.923752 150.659729,177.395187 150.884628,176.475983 
	C156.222198,155.149216 164.404541,135.301086 173.488464,115.384247 
	C173.733414,114.539108 173.902435,114.068748 174.273972,113.282791 
	C180.355576,105.104202 184.252213,96.006020 189.889496,87.984245 
	C190.939560,86.490013 191.868652,84.912300 193.235260,83.210098 
	C193.282700,81.976105 196.145172,83.574928 194.691467,81.179306 
	C205.640213,64.449059 219.123352,50.217358 232.765686,35.673698 
	C233.113785,35.225281 233.260330,35.053085 233.651184,34.649490 
	C234.752472,33.743793 235.679977,33.161114 236.726410,32.211700 
	C237.129852,31.870464 237.294373,31.740072 237.714783,31.432247 
	C239.003479,30.634750 240.021454,29.994951 241.038437,28.873753 
	C241.877655,27.914808 242.397079,27.085930 243.137100,26.053894 
	C243.572891,25.524897 243.842056,25.241117 244.335007,24.767124 
	C244.985886,24.181343 245.464661,23.851152 246.194672,23.377964 
	C246.758621,23.014093 247.074890,22.797436 247.604034,22.381310 
	C248.254501,21.791182 248.695450,21.402338 249.360779,20.821692 
	C249.744095,20.519964 249.900940,20.407724 250.292542,20.136923 
	C250.962708,19.670685 251.398712,19.363705 251.830811,18.743004 
	C249.722595,17.692699 247.792450,19.513739 245.329224,19.202816 
	C244.595718,19.307648 244.183228,19.393614 243.479492,19.616890 
	C242.987915,19.817900 242.792175,19.903452 242.300186,20.117325 
	C240.792984,20.746275 239.525009,21.101160 238.038513,21.829971 
	C215.189957,30.430540 194.310364,41.926891 175.125702,56.449806 
	C161.331238,66.892319 148.702927,78.632904 136.911804,91.773300 
	C136.101059,92.752167 135.417572,93.384506 134.771179,94.497299 
	C117.506020,114.152740 104.629494,136.130753 94.002914,159.944275 
	C93.553017,160.984222 93.277321,161.692993 92.930939,162.802032 
	C81.186333,192.758636 74.461227,223.323761 74.175644,255.601471 
	C73.959785,257.048553 73.787163,258.092987 74.046570,259.554047 
	C74.224197,272.776672 74.998878,285.546783 76.971939,298.234955 
	C80.342430,319.909698 86.666695,340.723572 95.077942,360.939453 
	C95.775978,362.617126 96.761543,364.218903 96.457344,366.552185 
	C93.182709,368.668793 89.874016,368.102386 86.399895,367.305725 
z"/>
<path fill="#C1C100" opacity="1.000000" stroke="none" 
	d="
M359.359375,382.803497 
	C358.930420,383.055328 358.868591,383.302399 358.749207,383.346680 
	C358.305908,383.463074 357.981995,383.535156 357.164062,383.669373 
	C348.075958,382.818451 339.470398,382.431183 330.815826,382.440308 
	C257.512878,382.517548 184.209763,382.514709 110.906868,382.415588 
	C106.069008,382.409027 101.382828,384.072113 96.045242,383.208099 
	C95.243401,383.021912 94.928444,382.925598 94.143997,382.678436 
	C66.464005,382.408661 39.253254,382.549896 11.554556,382.356873 
	C9.562022,380.500885 9.984483,378.523865 10.725756,376.154510 
	C15.337128,375.045410 19.658503,375.526093 23.967752,375.525848 
	C254.665939,375.514252 485.364136,375.515472 716.062317,375.517303 
	C718.060974,375.517303 720.059937,375.483124 722.537415,375.690277 
	C724.037842,382.479065 724.037842,382.483704 717.450500,382.483765 
	C600.227295,382.484711 483.004028,382.484039 365.780792,382.487823 
	C363.783356,382.487885 361.784607,382.420898 359.359375,382.803497 
z"/>
<path fill="#CDCD07" opacity="1.000000" stroke="none" 
	d="
M356.621765,382.792175 
	C357.304291,383.066925 357.571838,383.120483 358.234558,383.282471 
	C345.245270,423.884491 325.598511,460.982666 299.226929,494.588623 
	C271.816101,529.518860 239.197845,558.428040 201.268173,581.442871 
	C198.098297,583.366272 197.275955,583.699280 196.800385,579.292664 
	C196.146332,573.232361 198.796646,570.238464 203.524902,567.173523 
	C250.645676,536.629639 287.999268,496.665710 316.759949,448.578888 
	C329.028290,428.066650 338.797180,406.352753 346.946533,383.520660 
	C349.996460,381.772552 353.143524,382.819489 356.621765,382.792175 
z"/>
<path fill="#050505" opacity="1.000000" stroke="none" 
	d="
M831.565796,328.095764 
	C831.554810,333.406769 831.653931,338.236298 831.517029,343.059143 
	C831.361572,348.533020 829.210876,351.268127 825.332947,350.957764 
	C820.514221,350.572144 819.618591,347.081146 819.607544,343.113586 
	C819.578735,332.794739 819.587830,322.475708 819.596558,312.156769 
	C819.599487,308.740265 819.646057,305.077789 823.854187,304.177948 
	C828.168823,303.255341 830.239441,306.013092 830.884277,310.476105 
	C835.405396,306.006744 840.127563,303.590515 845.993408,304.016693 
	C849.068237,304.240082 852.195862,304.898315 854.150208,307.220337 
	C856.659363,310.201691 858.150085,310.352905 861.218262,307.600128 
	C866.228577,303.104950 872.410767,302.885529 878.527771,305.512878 
	C884.418274,308.042938 885.956604,313.179474 885.992615,319.011139 
	C886.043030,327.166138 886.084045,335.322235 886.003784,343.476593 
	C885.953857,348.545593 883.838379,351.153503 879.968933,350.949524 
	C875.202209,350.698273 874.024170,347.392944 874.003845,343.336212 
	C873.967163,336.013306 874.033875,328.689362 873.934814,321.367493 
	C873.883423,317.566467 873.370056,313.836639 868.577087,313.105103 
	C864.616943,312.500641 860.727417,315.496613 859.611023,320.084045 
	C859.145142,321.998322 859.020508,324.028503 858.990479,326.009766 
	C858.904846,331.667297 859.008301,337.327728 858.921997,342.985260 
	C858.839844,348.371216 856.730957,351.028442 852.787292,350.983093 
	C848.849243,350.937836 847.007019,348.401794 846.957703,342.784302 
	C846.893372,335.461884 847.004578,328.136047 846.817688,320.817352 
	C846.726379,317.245239 846.151062,313.648712 841.503967,313.074371 
	C836.988037,312.516266 833.555298,314.894897 832.445862,319.693359 
	C831.851746,322.262726 831.843933,324.967651 831.565796,328.095764 
z"/>
<path fill="#080808" opacity="1.000000" stroke="none" 
	d="
M600.097778,367.333069 
	C598.764160,364.508179 598.437988,361.896057 598.437988,359.222321 
	C598.438110,343.570679 598.429016,327.919067 598.451782,312.267456 
	C598.453735,310.943481 598.603394,309.610443 598.796204,308.298035 
	C599.154480,305.859375 600.639587,304.417877 603.044128,304.070129 
	C605.628235,303.696411 607.630188,304.727966 608.789917,307.072845 
	C609.280701,308.065216 609.450928,309.216125 609.923462,310.829681 
	C615.018433,305.797058 620.603149,302.890991 627.554504,304.257263 
	C633.630554,305.451477 638.290588,308.782562 640.967102,314.404785 
	C645.244995,323.390564 645.153992,332.534027 640.517334,341.288422 
	C634.882568,351.927521 621.537598,354.210815 612.491516,346.411804 
	C611.784302,345.802032 611.107727,345.156708 610.048462,344.192505 
	C608.292480,351.882202 611.218994,359.381012 607.899170,366.623260 
	C605.531067,369.468689 602.933472,368.721039 600.097778,367.333069 
z"/>
<path fill="#CDCD05" opacity="1.000000" stroke="none" 
	d="
M93.688812,382.262177 
	C94.112083,382.034546 94.322426,382.036011 94.848190,382.044678 
	C98.117821,383.047394 101.182228,382.211060 104.478653,382.875366 
	C113.278709,399.832123 124.417740,414.674347 136.712967,428.661926 
	C153.169830,447.383881 172.095154,463.233063 193.286743,476.371582 
	C196.441910,478.327728 198.538315,485.644043 196.912994,488.984070 
	C195.944443,490.974426 194.727020,489.614319 193.714661,489.026093 
	C181.342285,481.837341 169.769272,473.519012 158.784943,464.355591 
	C131.772369,441.820984 110.537827,414.676636 94.036118,383.292908 
	C93.736748,382.816650 93.606316,382.653961 93.688812,382.262177 
z"/>
<path fill="#050505" opacity="1.000000" stroke="none" 
	d="
M488.572845,308.919189 
	C493.543030,304.425995 499.030548,303.104309 505.074219,304.478149 
	C511.562195,305.952972 515.759216,310.780884 516.027466,317.596619 
	C516.374084,326.401489 516.256897,335.225769 516.274597,344.041840 
	C516.282654,348.022552 514.807800,351.046112 510.282776,350.938965 
	C505.952118,350.836456 504.887695,347.768555 504.883087,344.051483 
	C504.874603,337.230103 504.987701,330.405090 504.803284,323.588287 
	C504.600555,316.095428 502.247681,313.077515 497.028046,313.012756 
	C491.262817,312.941223 487.253052,317.004974 486.936432,323.664490 
	C486.667999,329.310272 486.777344,334.973541 486.691010,340.628632 
	C486.665680,342.288208 486.670441,343.964325 486.438904,345.601379 
	C485.957764,349.003174 484.111572,351.102325 480.466553,350.972504 
	C476.739838,350.839874 475.078339,348.424408 475.059967,345.067230 
	C474.965332,327.764526 474.972595,310.460907 475.043121,293.157990 
	C475.056732,289.812836 476.613098,287.311707 480.291473,287.054382 
	C484.203552,286.780670 486.254700,289.074738 486.470459,292.698914 
	C486.766479,297.672943 486.615540,302.672516 486.730560,307.659424 
	C486.749359,308.474579 486.101440,310.366241 488.572845,308.919189 
z"/>
<path fill="#050505" opacity="1.000000" stroke="none" 
	d="
M668.682800,304.382263 
	C687.269531,302.780487 698.926453,314.027863 696.553101,330.764404 
	C694.594666,344.574951 684.585571,352.324402 670.537476,350.906616 
	C657.982727,349.639526 649.775208,339.474060 650.541321,326.140228 
	C651.218933,314.347107 656.924133,307.377380 668.682800,304.382263 
z"/>
<path fill="#080808" opacity="1.000000" stroke="none" 
	d="
M805.382690,350.626038 
	C799.886353,351.648132 798.192688,348.649506 797.718872,343.768524 
	C793.315979,348.167206 788.557556,351.167419 782.297119,351.041290 
	C774.039551,350.874939 768.763794,346.516296 767.802734,338.315155 
	C766.715454,329.036591 767.344604,319.701050 767.436462,310.392975 
	C767.473083,306.684692 769.189026,303.797272 773.475952,304.059296 
	C777.651794,304.314575 778.989136,307.234314 779.008911,310.978882 
	C779.044922,317.800842 778.921082,324.625977 779.087280,331.444336 
	C779.263794,338.684052 781.869202,342.002869 786.965942,341.990234 
	C792.632080,341.976196 796.745361,337.689545 796.956299,331.185699 
	C797.166626,324.702240 797.046387,318.208679 797.132446,311.720367 
	C797.185120,307.748657 798.124695,304.124908 802.991394,304.080658 
	C807.910889,304.035858 808.852539,307.688171 808.872498,311.651428 
	C808.926147,322.300476 808.897766,332.949951 808.886841,343.599274 
	C808.884033,346.352203 808.464111,348.938843 805.382690,350.626038 
z"/>
<path fill="#070707" opacity="1.000000" stroke="none" 
	d="
M576.863342,350.062866 
	C570.138916,351.581085 563.904663,351.482025 557.824524,349.064026 
	C554.497009,347.740692 551.661438,345.762268 550.060181,342.416016 
	C548.641174,339.450592 548.209473,336.483612 551.597900,334.605560 
	C554.783447,332.839966 556.993958,334.594879 558.554993,337.326996 
	C561.648010,342.740601 566.438538,344.080292 572.192871,343.110321 
	C574.827209,342.666321 577.107117,341.463196 577.423950,338.563904 
	C577.740112,335.670471 575.876709,333.917419 573.284973,333.081024 
	C568.864563,331.654388 564.345093,330.521790 559.964294,328.988281 
	C552.518005,326.381653 549.377136,322.466949 549.693054,316.656189 
	C550.007629,310.869720 554.254700,306.518799 561.335815,304.751831 
	C567.526978,303.206970 573.567322,303.903442 579.420471,306.224396 
	C582.091736,307.283691 584.392883,309.024353 585.766479,311.627106 
	C586.925659,313.823669 587.242249,316.208344 585.039734,317.961670 
	C582.847168,319.707092 580.383240,319.677246 578.195557,317.852692 
	C576.927063,316.794861 575.866882,315.481842 574.746948,314.252625 
	C572.805298,312.121368 570.269043,311.317932 567.545105,311.441864 
	C564.511658,311.579895 561.000793,312.023560 560.493286,315.662781 
	C559.994507,319.239014 563.385986,320.101562 566.066101,320.929688 
	C569.712158,322.056183 573.471008,322.822479 577.104126,323.984985 
	C585.223999,326.583191 588.967773,330.577972 588.928589,336.308350 
	C588.882996,342.979462 585.325195,347.158997 576.863342,350.062866 
z"/>
<path fill="#060606" opacity="1.000000" stroke="none" 
	d="
M449.317383,304.388580 
	C454.935486,305.620361 459.507355,307.883606 462.603485,312.349548 
	C464.587341,315.211090 465.974396,318.559967 462.539032,321.223602 
	C459.044647,323.933044 456.530945,321.803223 454.248230,318.846283 
	C449.950745,313.279480 446.001465,311.697662 441.046936,313.478607 
	C435.430328,315.497559 433.548798,320.153564 433.044220,325.592194 
	C432.734070,328.935699 432.984619,332.251801 434.311279,335.393555 
	C437.728943,343.487366 447.854004,344.863312 453.406189,337.980804 
	C454.237457,336.950378 454.929321,335.805359 455.660309,334.696625 
	C457.329193,332.165222 459.607147,330.873230 462.430328,332.403809 
	C465.418396,334.023773 465.677185,336.893616 464.535278,339.795868 
	C462.420837,345.170013 458.115295,348.345032 452.800140,349.745728 
	C443.153473,352.287811 433.842346,351.874023 426.553558,343.893280 
	C420.418640,337.175903 419.440796,324.698975 423.928497,315.654572 
	C428.216064,307.013641 436.495636,303.241486 449.317383,304.388580 
z"/>
<path fill="#6F6F30" opacity="1.000000" stroke="none" 
	d="
M599.423706,366.974976 
	C602.265137,368.062683 604.657532,368.676361 607.470581,367.083679 
	C685.763428,367.013397 763.691101,367.011230 841.618652,367.072144 
	C843.638306,367.073730 845.997314,366.067719 847.726990,368.633789 
	C847.594849,369.178589 847.392334,369.324585 846.893738,369.241333 
	C687.283325,369.007538 527.969055,369.009521 368.654785,368.911316 
	C366.970367,368.910248 364.380646,370.578888 363.713348,367.155823 
	C375.646851,366.939270 387.310547,367.021942 398.974213,367.021332 
	C465.636902,367.017792 532.299622,366.994385 599.423706,366.974976 
z"/>
<path fill="#363602" opacity="1.000000" stroke="none" 
	d="
M846.683167,369.441376 
	C846.797363,369.031097 846.997070,369.050140 847.497070,369.050873 
	C847.862793,370.026611 847.833801,371.037842 848.010742,372.011627 
	C848.669617,375.637390 847.047119,376.306213 843.654846,376.295074 
	C804.158569,376.165070 764.661865,376.202820 724.716675,376.136932 
	C724.004639,376.234344 723.741089,376.391022 723.088196,376.303101 
	C720.868347,376.094879 719.037842,376.163055 717.207397,376.163116 
	C483.000061,376.168396 248.792709,376.168518 14.585370,376.171234 
	C13.752856,376.171265 12.920341,376.203857 11.637276,376.293274 
	C10.631824,376.449341 10.202555,376.255402 9.987290,375.412048 
	C14.367601,375.168060 18.021622,374.618164 16.864670,368.395752 
	C17.536362,367.816528 17.949106,367.950317 18.196104,368.765747 
	C16.954575,374.060181 19.015594,375.105255 23.810265,375.103149 
	C296.269196,374.983246 568.728149,374.990051 841.187134,375.059631 
	C845.082947,375.060608 847.879517,374.814850 846.683167,369.441376 
z"/>
<path fill="#080808" opacity="1.000000" stroke="none" 
	d="
M394.628357,305.230713 
	C395.574829,306.779327 396.220062,308.076630 397.097504,309.840881 
	C401.517670,303.688354 407.011627,302.409027 413.566101,305.720154 
	C416.487854,307.196106 418.058105,309.428192 416.853241,312.560608 
	C415.683350,315.602081 413.026764,315.675629 410.138885,315.010132 
	C401.603455,313.043335 399.266418,314.720032 397.694092,323.444550 
	C396.682068,329.060028 397.183655,334.714142 397.035339,340.351959 
	C396.991608,342.012634 397.132599,343.691864 396.934753,345.331940 
	C396.528778,348.697510 394.763611,350.937103 391.155334,350.955139 
	C387.765564,350.972076 385.771973,348.873169 385.630890,345.711212 
	C385.090485,333.600189 384.848328,321.462708 385.736053,309.370026 
	C386.107697,304.307037 388.943726,303.177002 394.628357,305.230713 
z"/>
<path fill="#060606" opacity="1.000000" stroke="none" 
	d="
M705.937866,312.299683 
	C705.937012,309.999084 706.027466,308.187225 707.023071,306.541351 
	C708.181213,304.626709 709.890686,303.873505 712.064453,304.022369 
	C715.666382,304.268982 716.506042,306.988129 717.384644,310.526428 
	C721.371826,304.122620 726.671875,302.366425 733.188232,305.285004 
	C736.024902,306.555511 738.693604,308.374146 737.539673,312.071228 
	C736.370056,315.818604 733.375793,315.680725 730.179443,314.892578 
	C722.541931,313.009338 719.262756,315.045898 718.247986,322.921967 
	C717.592407,328.010406 717.763489,333.206757 717.594727,338.355774 
	C717.534851,340.183167 717.637024,342.017242 717.540039,343.841644 
	C717.337219,347.660004 716.172668,351.007080 711.622986,350.920624 
	C707.131714,350.835297 705.937256,347.610565 705.939575,343.688995 
	C705.945679,333.379425 705.938416,323.069885 705.937866,312.299683 
z"/>
<path fill="#090909" opacity="1.000000" stroke="none" 
	d="
M755.711914,338.861694 
	C755.616272,341.491760 755.683838,343.666351 755.386597,345.789825 
	C754.942383,348.963440 753.093750,350.978210 749.748169,350.957947 
	C746.092346,350.935791 744.267761,348.560883 744.105652,345.242188 
	C743.846680,339.940491 743.993774,334.618591 743.984802,329.305237 
	C743.974915,323.493225 744.005371,317.681122 743.975037,311.869263 
	C743.954102,307.870605 744.766602,304.405426 749.593079,304.040802 
	C753.453064,303.749176 755.634094,306.596924 755.685974,311.980377 
	C755.770813,320.780640 755.710876,329.582245 755.711914,338.861694 
z"/>
<path fill="#090909" opacity="1.000000" stroke="none" 
	d="
M528.052063,345.369019 
	C528.005249,333.963348 528.011902,322.995575 527.973267,312.027924 
	C527.959351,308.067047 528.617004,304.527527 533.443604,304.045624 
	C537.311035,303.659485 539.639282,306.536346 539.681030,311.838257 
	C539.764771,322.472961 539.748840,333.109344 539.655945,343.743988 
	C539.626770,347.083374 538.663391,350.198669 534.804077,350.873322 
	C530.969421,351.543671 528.945312,349.331635 528.052063,345.369019 
z"/>
<path fill="#0D0D00" opacity="1.000000" stroke="none" 
	d="
M722.787842,376.490784 
	C722.960449,376.052826 723.222046,376.047119 723.875916,376.059540 
	C723.649048,382.999969 723.649048,382.999908 716.475525,383.000000 
	C597.608337,383.001343 478.741211,383.002716 359.402222,383.029724 
	C360.588806,380.924896 362.898407,382.050598 364.859344,382.049561 
	C482.544220,381.988098 600.229126,381.974060 717.914001,382.080292 
	C721.990723,382.083984 723.921631,381.254791 722.787842,376.490784 
z"/>
<path fill="#0D0D00" opacity="1.000000" stroke="none" 
	d="
M105.267303,383.084595 
	C101.701790,383.031006 98.619568,382.905121 95.350479,382.415527 
	C181.667328,382.033844 268.171051,382.015289 354.674774,382.007324 
	C355.332306,382.007263 355.989868,382.151978 356.842041,382.621216 
	C353.992340,383.017059 350.947998,383.020752 347.455444,383.095276 
	C345.845886,383.110687 344.684570,383.006927 343.523224,383.006866 
	C264.265686,383.003387 185.008148,383.008209 105.267303,383.084595 
z"/>
<path fill="#6A6A12" opacity="1.000000" stroke="none" 
	d="
M18.589600,369.086487 
	C17.935932,368.821594 17.739429,368.510651 17.282242,368.098633 
	C18.325747,365.955170 20.345934,367.068573 21.967794,367.062897 
	C43.062565,366.988800 64.157776,367.038727 85.737823,366.989197 
	C89.204391,367.862549 92.193161,366.480682 95.600082,366.900818 
	C96.272865,366.740875 96.521790,366.628815 97.178398,366.479706 
	C102.450020,366.743378 107.313179,366.872803 112.588753,366.314880 
	C113.286789,366.242035 113.569626,366.231598 114.277832,366.259155 
	C125.353561,366.972412 136.012497,366.522430 147.085999,366.477478 
	C147.774872,366.338135 148.045609,366.262146 148.730499,366.111969 
	C149.699036,365.978729 150.254501,365.964569 151.219543,366.032898 
	C151.894836,366.117310 152.161713,366.164917 152.816986,366.318054 
	C158.179565,367.272003 163.309937,365.795074 168.606964,367.307739 
	C171.131790,367.166351 173.280716,367.150238 175.892899,367.100983 
	C176.569336,367.004272 176.782516,366.940735 177.187393,367.150391 
	C177.387573,367.646057 177.396027,367.868469 177.217712,368.367554 
	C168.067093,368.766479 159.103378,368.985260 150.139420,368.994690 
	C106.441902,369.040649 62.744320,369.030640 18.589600,369.086487 
z"/>
<path fill="#090909" opacity="1.000000" stroke="none" 
	d="
M529.702881,288.697601 
	C532.794922,286.372437 535.638000,286.350525 538.109192,288.792542 
	C540.116028,290.775757 540.116150,293.341248 538.740967,295.693909 
	C537.275024,298.201874 534.777466,298.591949 532.176025,298.029449 
	C528.201721,297.170105 527.157532,293.602722 529.702881,288.697601 
z"/>
<path fill="#090909" opacity="1.000000" stroke="none" 
	d="
M755.308594,294.322571 
	C753.267517,298.782288 749.973938,299.176941 746.511780,297.246063 
	C743.631409,295.639709 743.073975,292.699890 744.835754,289.903809 
	C746.813599,286.764832 749.763489,286.076630 753.045593,287.945862 
	C755.374268,289.272095 755.916138,291.451111 755.308594,294.322571 
z"/>
<path fill="#0D0D00" opacity="1.000000" stroke="none" 
	d="
M93.439835,382.016907 
	C93.901749,382.033051 93.964310,382.509033 93.915749,382.744202 
	C66.240616,382.981812 38.614044,382.984283 10.529695,382.905273 
	C9.879834,382.373077 10.000322,382.014191 10.717451,381.777740 
	C38.354683,381.880615 65.666298,381.940674 93.439835,382.016907 
z"/>
<path fill="#6F6F30" opacity="1.000000" stroke="none" 
	d="
M11.024813,381.427368 
	C10.732702,381.936707 10.470894,382.121582 10.164778,382.599487 
	C7.885713,380.516998 9.338509,377.831879 9.682842,375.171753 
	C10.279503,375.372101 10.483348,375.703552 10.936958,376.200134 
	C11.126670,377.921570 11.066616,379.477844 11.024813,381.427368 
z"/>
<path fill="#FFFFFF" opacity="1.000000" stroke="none" 
	d="
M177.469147,367.451599 
	C177.029449,367.225464 176.707779,367.071442 176.531952,367.069641 
	C167.476791,347.098389 160.175674,326.623932 155.514511,305.205658 
	C150.184601,280.714417 147.804245,255.925659 149.173111,230.988754 
	C152.508163,170.233627 172.457932,115.417267 209.839828,67.191101 
	C225.315765,47.225685 243.300629,29.756134 263.360779,14.420337 
	C265.253021,12.973728 266.720947,11.567562 269.344788,14.357898 
	C297.961151,44.790154 320.268494,79.332336 337.110962,117.468605 
	C351.321045,149.644424 360.135651,183.355408 364.797638,218.134262 
	C367.855957,240.949448 368.089508,263.972504 366.735687,286.892120 
	C365.149353,313.748260 360.124329,340.128418 352.629913,366.410156 
	C352.265533,367.025574 352.033630,367.262451 351.334412,367.667847 
	C343.538696,368.194580 336.205475,367.980164 328.875061,367.983948 
	C280.710327,368.008636 232.545609,368.000092 184.380890,367.986023 
	C182.222382,367.985413 180.045258,368.208893 177.469147,367.451599 
z"/>
<path fill="#FEFEFE" opacity="1.000000" stroke="none" 
	d="
M234.109619,35.229137 
	C231.298080,40.730179 226.215164,44.239311 222.166214,48.657055 
	C212.734741,58.947575 204.237000,69.985443 195.223969,80.968521 
	C194.568848,81.569702 194.617371,82.188393 194.260529,82.986465 
	C188.069717,93.209908 182.048950,103.191132 175.672699,113.148010 
	C174.888657,113.477562 173.769806,113.455826 174.693604,114.733551 
	C173.771912,120.555893 170.537842,125.202072 168.302261,130.262161 
	C161.780869,145.022827 156.843140,160.325409 151.942093,175.932419 
	C151.366028,176.378250 151.258316,176.701965 151.240692,177.320663 
	C152.176392,183.116684 149.660248,188.173248 148.672775,193.367111 
	C144.854660,213.449310 143.350876,233.666534 142.974030,254.788467 
	C141.122940,256.367310 139.431183,256.308105 137.522797,256.986084 
	C134.295715,257.377472 131.471069,257.689240 128.338150,256.546692 
	C126.805824,253.332199 127.940491,250.353989 127.998787,246.997635 
	C128.019455,244.427216 127.974548,242.232819 128.021057,240.558029 
	C127.916008,241.962265 128.032684,243.888443 127.994263,246.186127 
	C128.022049,249.239761 127.198654,251.864960 127.463974,254.979065 
	C127.340874,256.353363 126.651794,256.848328 125.541313,257.502563 
	C124.881645,257.770538 124.608269,257.851410 123.914383,257.999573 
	C117.522911,258.799744 111.662239,256.863647 105.697456,257.335907 
	C103.890373,257.479004 102.046822,257.226440 99.880188,258.003296 
	C92.516754,258.481415 92.516754,258.481415 92.510956,249.676392 
	C92.821304,247.346222 93.169907,245.410004 92.999359,243.616058 
	C92.935303,244.959625 93.140381,246.515930 92.531357,248.382324 
	C92.487747,249.889725 92.341591,251.036774 92.509621,252.136688 
	C93.143013,256.282990 91.662193,258.636902 86.830017,258.796387 
	C86.131874,258.989197 85.848427,259.055725 85.130966,259.187653 
	C80.855164,259.303314 77.135582,258.564575 73.175125,257.177917 
	C72.512230,224.535248 79.530167,193.671143 91.093460,163.698380 
	C91.265312,163.252945 91.675652,162.899521 92.173370,162.177063 
	C92.459274,161.408203 92.536629,160.963699 92.792061,160.236450 
	C102.929352,135.776962 116.366249,113.750793 133.983795,94.040573 
	C134.770493,93.352364 135.219940,92.720947 135.753418,91.806915 
	C143.736328,81.845062 152.809570,73.321686 162.263107,65.233673 
	C184.619965,46.106182 209.551453,31.259970 237.531311,20.960678 
	C239.969604,23.084906 240.894882,21.766649 241.796844,19.466068 
	C242.172501,19.150738 242.334381,19.097881 242.751678,19.040894 
	C243.744263,19.527370 243.118347,20.569559 243.830048,21.070471 
	C243.219040,20.381500 243.627609,19.584450 243.806274,18.577074 
	C246.556717,17.810028 249.091141,17.286064 251.631851,16.794596 
	C254.100784,16.317017 254.265106,16.515717 253.113892,18.918667 
	C252.342697,19.415300 251.823761,19.765768 251.206909,20.466415 
	C250.990204,20.688189 250.634552,21.015284 250.394196,21.039677 
	C249.454758,21.417313 248.724899,21.733040 248.195953,22.748795 
	C247.824234,23.272947 247.638031,23.567680 247.185303,23.784245 
	C246.195038,23.562790 245.745804,23.951847 245.196167,24.757816 
	C244.857956,25.317942 244.702255,25.620415 244.294250,26.002693 
	C242.610886,26.165413 242.076035,27.034943 242.069901,28.696232 
	C241.324036,30.398691 240.248169,31.423492 238.505981,32.125000 
	C238.075729,32.083298 238.067505,31.901094 238.041321,32.035843 
	C237.496582,33.715485 236.290649,34.739082 234.591690,35.394615 
	C234.285477,35.207748 234.012573,35.171978 234.109619,35.229137 
z"/>
<path fill="#FEFEFE" opacity="1.000000" stroke="none" 
	d="
M84.399185,258.265686 
	C84.998421,258.053589 85.203529,258.039429 85.716606,258.008759 
	C87.327568,257.134735 88.780716,257.652649 90.585892,257.623199 
	C91.543152,257.953796 91.951553,258.337708 92.344116,259.272034 
	C92.519905,264.502838 92.467178,269.319519 92.482620,274.517029 
	C92.626480,276.509735 93.207237,278.076294 93.009338,279.378326 
	C93.101532,278.196777 92.903603,276.698578 92.520187,274.820648 
	C92.527550,270.969086 92.493690,267.514130 92.518814,264.059448 
	C92.574806,256.360626 91.833603,257.667236 99.570892,257.463013 
	C107.909622,256.066101 115.791794,257.976440 124.100754,257.167725 
	C124.533760,256.972382 124.684540,257.011902 124.761131,257.026306 
	C125.300774,256.654785 125.830193,256.492676 126.813530,256.731384 
	C128.805634,260.258789 127.628227,263.837708 128.021561,267.287689 
	C128.103317,264.032745 127.688278,260.773071 128.580002,257.212402 
	C131.312805,256.111603 133.874695,256.702240 136.823517,256.511261 
	C138.630997,256.305481 139.990448,255.884918 141.830353,256.099609 
	C142.507935,256.244049 142.769226,256.342316 143.344147,256.718018 
	C144.175858,280.453247 147.915710,303.430176 154.063721,326.034760 
	C157.803116,339.783478 162.856476,353.074310 168.463135,366.574005 
	C163.384689,368.110474 158.147263,367.227081 152.480560,367.279633 
	C152.016678,367.116577 152.025192,366.901184 152.039749,366.794373 
	C151.569351,366.388794 151.069809,366.165619 150.242981,366.526123 
	C149.844498,366.791321 149.687912,366.915161 149.251923,367.146606 
	C137.696396,367.729889 126.416992,367.443542 114.684601,367.451721 
	C114.046135,367.363617 113.861717,367.224335 113.333313,367.127991 
	C107.975433,367.831543 102.940269,367.346954 97.460823,367.324280 
	C96.842735,367.138519 96.679871,367.079559 96.270477,366.936768 
	C88.022827,348.503754 81.567871,329.661072 77.591698,309.998840 
	C74.260719,293.527130 72.574516,276.913208 72.865349,259.658752 
	C76.459595,256.366882 80.354530,259.227722 84.399185,258.265686 
z"/>
<path fill="#6F6F30" opacity="1.000000" stroke="none" 
	d="
M177.015808,367.462524 
	C179.185028,367.159424 181.340591,367.036072 183.496170,367.035797 
	C239.347397,367.028442 295.198639,367.033813 351.516693,367.065582 
	C352.336395,367.433990 352.482117,367.846954 352.187622,368.593567 
	C325.859955,368.902283 299.765411,368.984100 273.670868,368.989960 
	C241.757339,368.997131 209.843796,368.940613 177.480591,368.777954 
	C177.010956,368.329651 177.001373,368.014801 177.015808,367.462524 
z"/>
<path fill="#969696" opacity="1.000000" stroke="none" 
	d="
M84.379532,258.119629 
	C81.277191,259.718628 77.500374,258.625671 73.411072,259.157166 
	C72.247925,258.681763 72.161301,258.016418 72.697838,257.047943 
	C76.695023,256.319366 80.273193,257.722290 84.379532,258.119629 
z"/>
<path fill="#6A6A12" opacity="1.000000" stroke="none" 
	d="
M352.409607,368.910950 
	C351.967041,368.463165 351.979584,368.072205 351.987823,367.387695 
	C351.983521,367.094147 352.197296,366.865417 352.347351,366.827026 
	C355.542877,366.950348 358.588318,367.112000 361.633759,367.273682 
	C358.865051,369.654297 355.793091,368.766205 352.409607,368.910950 
z"/>
<path fill="#6D6D22" opacity="1.000000" stroke="none" 
	d="
M152.323334,367.391907 
	C157.187653,367.090179 162.358643,367.063782 168.043716,366.994263 
	C168.557816,366.951111 168.770569,367.066132 168.876709,367.124268 
	C163.576233,368.839691 158.093948,367.944824 152.323334,367.391907 
z"/>
<path fill="#F7F7F4" opacity="1.000000" stroke="none" 
	d="
M241.679657,19.207554 
	C242.779709,23.090017 239.361160,22.998476 237.350082,24.243147 
	C236.272537,22.773130 238.304871,22.379194 238.074829,21.114695 
	C239.052048,20.364176 240.200363,19.787846 241.679657,19.207554 
z"/>
<path fill="#F8F8F6" opacity="1.000000" stroke="none" 
	d="
M242.378662,28.926266 
	C240.279984,26.824522 240.556625,25.553101 243.853210,25.823452 
	C243.583923,26.992163 243.125916,27.901825 242.378662,28.926266 
z"/>
<path fill="#F8F8F6" opacity="1.000000" stroke="none" 
	d="
M174.893280,114.674057 
	C174.035889,114.274796 172.526932,114.396996 172.450165,112.899002 
	C173.201324,112.940277 173.952484,112.981552 175.010422,113.073242 
	C175.203842,113.536972 175.090469,113.950272 174.893280,114.674057 
z"/>
<path fill="#F7F7F4" opacity="1.000000" stroke="none" 
	d="
M243.797699,18.342474 
	C243.750534,19.200737 244.621323,20.389284 243.299957,20.986259 
	C243.201630,20.538481 243.103302,20.090702 243.006027,19.339844 
	C243.120697,18.748531 243.310272,18.524670 243.797699,18.342474 
z"/>
<path fill="#FAFAF9" opacity="1.000000" stroke="none" 
	d="
M135.624573,91.726624 
	C135.931778,92.445465 135.978760,93.344818 134.657394,93.920845 
	C134.696518,93.306984 135.047867,92.613701 135.624573,91.726624 
z"/>
<path fill="#FBFBFB" opacity="1.000000" stroke="none" 
	d="
M245.269867,24.873556 
	C245.118668,24.104948 245.069397,23.056271 246.715057,23.524483 
	C246.454544,24.047934 245.990311,24.389790 245.269867,24.873556 
z"/>
<path fill="#FBFBFB" opacity="1.000000" stroke="none" 
	d="
M251.240738,20.622368 
	C251.073029,19.891603 251.365311,19.254404 252.509705,19.019276 
	C252.354752,19.507927 251.923019,20.032238 251.240738,20.622368 
z"/>
<path fill="#FBFBFB" opacity="1.000000" stroke="none" 
	d="
M248.258423,22.828863 
	C248.067871,22.011086 248.356644,21.223013 249.816620,21.072277 
	C249.604691,21.602558 249.055557,22.141033 248.258423,22.828863 
z"/>
<path fill="#FDFDFD" opacity="1.000000" stroke="none" 
	d="
M151.335785,177.347107 
	C150.661301,177.089966 149.904205,176.602051 151.379715,176.070175 
	C151.526535,176.428238 151.482086,176.769531 151.335785,177.347107 
z"/>
<path fill="#F8F8F6" opacity="1.000000" stroke="none" 
	d="
M194.332108,83.115799 
	C194.190216,82.624779 194.289948,82.020882 194.636627,81.232498 
	C194.562439,81.665131 196.236282,82.598427 194.332108,83.115799 
z"/>
<path fill="#FAFAF9" opacity="1.000000" stroke="none" 
	d="
M92.739761,160.099030 
	C92.903313,160.468979 92.825050,160.982254 92.559418,161.673264 
	C92.414017,161.314774 92.455978,160.778564 92.739761,160.099030 
z"/>
<path fill="#FCFCFB" opacity="1.000000" stroke="none" 
	d="
M143.716675,256.721802 
	C143.657776,256.995483 143.321976,256.938538 143.156418,256.898682 
	C142.649872,256.546906 142.500320,256.156769 142.686096,255.415039 
	C142.855362,255.131287 142.965652,255.021866 143.028748,254.975891 
	C143.319748,255.435989 143.547668,255.942062 143.716675,256.721802 
z"/>
<path fill="#FBFBFB" opacity="1.000000" stroke="none" 
	d="
M615.032227,314.792633 
	C623.056702,310.691345 629.215942,313.250275 631.436340,321.450104 
	C632.673645,326.019348 632.605164,330.700287 630.771545,335.133209 
	C629.149841,339.053864 626.359619,341.789673 621.830261,341.966095 
	C617.184387,342.147064 613.943420,339.827423 611.845032,335.834137 
	C608.444580,329.362976 609.678467,320.670959 615.032227,314.792633 
z"/>
<path fill="#FAFAF9" opacity="1.000000" stroke="none" 
	d="
M682.975586,336.749664 
	C679.992188,341.682526 675.755493,343.043854 670.769897,341.956146 
	C665.969360,340.908813 663.881470,337.250366 662.762512,332.766968 
	C661.634705,328.247955 661.912903,323.856995 663.582886,319.568848 
	C665.326904,315.090942 668.627380,312.680695 673.511169,312.669220 
	C678.378540,312.657776 681.827148,315.003601 683.558777,319.450500 
	C685.755920,325.092896 685.714783,330.808655 682.975586,336.749664 
z"/>
<path fill="#6D6D22" opacity="1.000000" stroke="none" 
	d="
M114.561447,367.693787 
	C125.493706,366.481750 136.779938,367.311554 148.512726,367.167664 
	C144.138443,368.872742 139.162079,367.816742 134.258453,367.954254 
	C127.808800,368.135071 121.348221,367.926056 114.561447,367.693787 
z"/>
<path fill="#6F6F30" opacity="1.000000" stroke="none" 
	d="
M97.329102,367.452301 
	C102.025078,367.148254 107.044548,367.098999 112.526672,367.110321 
	C107.927284,368.785645 102.778198,367.910461 97.329102,367.452301 
z"/>
<path fill="#FDFDFC" opacity="1.000000" stroke="none" 
	d="
M150.343506,366.656616 
	C150.328430,365.290375 150.828812,364.569946 151.995789,366.422485 
	C151.598175,366.673645 151.142059,366.659668 150.343506,366.656616 
z"/>
<path fill="#525252" opacity="1.000000" stroke="none" 
	d="
M111.022079,165.343155 
	C110.614754,166.057861 110.901848,166.364517 111.452927,166.526031 
	C111.071831,166.580856 110.408264,166.538345 110.350937,166.704727 
	C108.897751,170.921539 107.584824,175.187912 106.071716,179.382248 
	C105.416679,181.198029 105.401360,183.360077 102.590492,185.516220 
	C105.074211,178.184464 107.193962,171.909958 109.360123,165.651535 
	C109.405006,165.521851 109.987740,165.578339 110.573593,165.470093 
	C110.827637,165.392227 111.179436,165.230316 111.022079,165.343155 
z"/>
<path fill="#090909" opacity="1.000000" stroke="none" 
	d="
M91.260071,258.362427 
	C89.629929,258.164673 88.244545,258.099335 86.441864,258.013123 
	C92.174850,257.762726 92.809677,253.831665 92.076401,248.528870 
	C92.234497,247.933746 92.389038,247.789795 92.808273,247.819916 
	C93.055855,248.965607 93.175018,249.962753 92.998917,250.904663 
	C92.057259,255.941284 94.104027,257.917969 99.446983,257.396851 
	C92.890701,258.201508 92.898392,258.201416 92.976913,265.103577 
	C93.014709,268.425903 93.017227,271.748657 93.059402,275.539368 
	C92.905510,276.120636 92.727928,276.233673 92.329201,276.121338 
	C92.058792,270.565186 92.009521,265.234467 91.864899,259.444031 
	C91.681305,258.821167 91.593063,258.657959 91.260071,258.362427 
z"/>
<path fill="#969696" opacity="1.000000" stroke="none" 
	d="
M100.287491,257.734436 
	C99.808075,257.788696 99.785950,257.503693 99.867058,257.385986 
	C103.997086,255.184921 108.467346,255.753647 112.589149,256.156830 
	C116.281090,256.518005 120.000580,256.743896 124.116516,257.041992 
	C116.665703,259.029205 108.700142,257.811859 100.287491,257.734436 
z"/>
<path fill="#FAFAF9" opacity="1.000000" stroke="none" 
	d="
M116.260445,152.754974 
	C116.305275,144.987991 121.432373,139.074890 124.857567,132.132843 
	C125.335838,131.829514 125.515999,131.712265 125.850906,131.877899 
	C126.116081,133.537796 125.866119,134.922104 124.996269,135.927795 
	C120.785667,140.795975 119.315613,147.009277 116.260445,152.754974 
z"/>
<path fill="#FAFAF9" opacity="1.000000" stroke="none" 
	d="
M140.667999,97.337631 
	C139.153000,96.411919 137.431961,96.279762 136.961273,93.997185 
	C141.292648,94.320511 144.232513,100.887192 149.842422,95.976707 
	C148.864990,98.039497 148.414474,99.312477 147.704468,100.418945 
	C146.389618,102.467987 145.823654,102.324333 144.607864,99.901138 
	C143.870392,98.431259 142.183975,98.314201 140.667999,97.337631 
z"/>
<path fill="#F7F7F4" opacity="1.000000" stroke="none" 
	d="
M165.178558,78.039978 
	C167.615860,73.543312 170.260437,69.479919 175.683014,68.301636 
	C176.140503,68.707977 176.310608,68.963425 176.238129,69.610107 
	C171.796448,71.232384 170.014496,75.373589 166.429321,77.836250 
	C165.877274,78.131737 165.621658,78.291634 165.178558,78.039978 
z"/>
<path fill="#525252" opacity="1.000000" stroke="none" 
	d="
M138.606155,176.469727 
	C138.404831,172.522186 134.287155,174.942886 131.788910,172.067368 
	C136.957214,172.458542 140.587784,172.976746 144.022339,174.875198 
	C142.717850,177.485779 140.099136,174.139877 138.606155,176.469727 
z"/>
<path fill="#525252" opacity="1.000000" stroke="none" 
	d="
M129.976257,219.868469 
	C130.261749,224.271362 129.930817,228.451721 128.416443,232.539444 
	C128.303848,228.633194 127.429619,224.721848 129.086868,220.434082 
	C129.365707,219.906662 129.543274,219.797195 129.976257,219.868469 
z"/>
<path fill="#969696" opacity="1.000000" stroke="none" 
	d="
M127.346268,246.263214 
	C126.669785,242.784271 126.953461,239.532928 127.697662,235.532333 
	C129.685165,239.069534 128.990570,242.224945 128.781464,245.730560 
	C128.312820,246.411758 127.959778,246.512512 127.346268,246.263214 
z"/>
<path fill="#5D5D5D" opacity="1.000000" stroke="none" 
	d="
M147.216583,152.385422 
	C146.705887,147.932358 149.464081,144.139023 151.226135,139.699799 
	C151.702728,139.427551 151.961426,139.439453 152.229980,139.839676 
	C150.892624,144.314682 149.300858,148.297607 147.216583,152.385422 
z"/>
<path fill="#5D5D5D" opacity="1.000000" stroke="none" 
	d="
M130.462036,219.739624 
	C130.057648,220.046722 129.883621,220.044250 129.448868,220.028961 
	C128.800903,216.215027 129.621521,212.677841 131.985794,209.421143 
	C131.554657,212.757446 131.123520,216.093735 130.462036,219.739624 
z"/>
<path fill="#969696" opacity="1.000000" stroke="none" 
	d="
M93.336555,247.693146 
	C92.902985,247.954758 92.733002,247.915573 92.321487,247.977020 
	C91.609138,245.036743 92.000923,242.079056 92.683022,237.995422 
	C94.727066,241.787521 94.112854,244.594025 93.336555,247.693146 
z"/>
<path fill="#FAFAF9" opacity="1.000000" stroke="none" 
	d="
M113.260002,159.765350 
	C111.471741,156.866241 113.236092,154.918442 115.564453,152.969391 
	C115.891411,152.887375 116.001350,152.998611 116.058449,153.053497 
	C115.282906,155.281494 114.450264,157.454620 113.260002,159.765350 
z"/>
<path fill="#525252" opacity="1.000000" stroke="none" 
	d="
M127.101624,246.521118 
	C127.460556,246.105331 127.792801,246.135345 128.377197,246.168579 
	C128.523392,249.108994 128.417419,252.046204 128.273529,255.389130 
	C128.019684,255.966141 127.803772,256.137390 127.228012,256.105194 
	C126.937088,252.923492 127.006012,249.945190 127.101624,246.521118 
z"/>
<path fill="#090909" opacity="1.000000" stroke="none" 
	d="
M126.540497,255.949646 
	C127.097137,255.897659 127.326111,255.893539 127.895340,255.842133 
	C131.190903,255.856934 134.146225,255.919006 137.549377,255.994034 
	C138.123718,256.183075 138.250214,256.359161 138.128525,256.745361 
	C135.243393,256.980682 132.606445,257.005829 129.533478,257.089294 
	C128.635208,257.447998 128.128464,257.592865 127.198380,257.446228 
	C126.381165,257.244049 125.942863,257.178131 125.171143,257.076447 
	C124.945076,256.230255 125.484291,255.989090 126.540497,255.949646 
z"/>
<path fill="#5D5D5D" opacity="1.000000" stroke="none" 
	d="
M215.589630,48.787663 
	C217.033371,47.010815 218.591599,45.508961 220.457092,43.886147 
	C220.951355,43.831795 221.138336,43.898399 221.448944,44.235878 
	C220.007126,46.010864 218.441696,47.514980 216.570892,49.140579 
	C216.078400,49.195591 215.891266,49.129124 215.589630,48.787663 
z"/>
<path fill="#F7F7F4" opacity="1.000000" stroke="none" 
	d="
M219.624588,34.712173 
	C218.343643,35.250118 217.369080,35.647881 216.103867,36.164268 
	C216.224197,33.464771 218.581055,33.420959 220.018799,32.479530 
	C220.607803,32.093845 221.368958,32.158310 221.485626,32.972870 
	C221.634247,34.010681 220.541031,34.116287 219.624588,34.712173 
z"/>
<path fill="#525252" opacity="1.000000" stroke="none" 
	d="
M169.136902,111.123154 
	C166.254868,112.557121 165.548141,110.454559 164.634125,108.851471 
	C164.403152,108.446388 164.542770,108.366783 167.590652,108.022568 
	C168.217026,107.883560 168.491425,107.823502 168.748062,108.184410 
	C168.384750,109.336266 168.621002,109.821266 169.504227,110.300339 
	C169.577286,110.694489 169.505539,110.882324 169.136902,111.123154 
z"/>
<path fill="#FAFAF9" opacity="1.000000" stroke="none" 
	d="
M161.883759,118.414627 
	C163.250870,120.584213 161.434250,121.726952 160.512527,123.522644 
	C159.483521,121.278038 160.399521,119.836807 161.883759,118.414627 
z"/>
<path fill="#F8F8F6" opacity="1.000000" stroke="none" 
	d="
M180.687973,89.064774 
	C180.763702,91.061256 179.951874,92.734596 177.640778,94.374557 
	C177.804520,91.682365 178.540497,90.131615 180.687973,89.064774 
z"/>
<path fill="#FDFDFC" opacity="1.000000" stroke="none" 
	d="
M138.306793,256.970490 
	C137.880356,256.955505 138.009598,256.489990 138.003418,256.248474 
	C139.093170,254.515778 140.682938,255.115723 142.483688,255.083252 
	C142.897995,255.515091 142.940643,255.898880 142.987076,256.570740 
	C141.571655,256.901062 140.152435,256.943268 138.306793,256.970490 
z"/>
<path fill="#5D5D5D" opacity="1.000000" stroke="none" 
	d="
M201.244507,63.813042 
	C202.013824,62.640064 202.994339,61.232056 204.242645,59.642212 
	C204.693237,59.538754 204.876038,59.617130 205.156357,59.977455 
	C204.176620,61.581699 203.182159,62.998753 201.244507,63.813042 
z"/>
<path fill="#F8F8F6" opacity="1.000000" stroke="none" 
	d="
M190.626038,76.009331 
	C191.103455,76.796585 191.090164,77.508278 190.967926,78.675964 
	C189.660233,78.600792 188.461472,78.069633 187.054565,77.282875 
	C186.723312,76.833710 186.600174,76.640137 186.737183,76.221268 
	C188.043320,75.975243 189.089310,75.954506 190.626038,76.009331 
z"/>
<path fill="#FAFAF9" opacity="1.000000" stroke="none" 
	d="
M152.148682,139.066864 
	C151.958176,137.148773 152.298721,135.630936 154.734192,133.521011 
	C154.135269,135.935226 153.801407,137.280991 153.196152,138.825256 
	C152.730667,139.127075 152.536575,139.230408 152.148682,139.066864 
z"/>
<path fill="#5D5D5D" opacity="1.000000" stroke="none" 
	d="
M132.572662,121.226929 
	C131.815201,123.339134 130.958542,125.024208 129.142868,126.754059 
	C128.910416,124.112747 130.559219,122.833618 131.630020,121.080254 
	C132.178986,120.937950 132.399017,120.918388 132.572662,121.226929 
z"/>
<path fill="#F7F7F4" opacity="1.000000" stroke="none" 
	d="
M228.948257,28.942419 
	C227.933334,29.417940 227.162476,30.213755 226.546204,30.108080 
	C225.847839,29.988327 226.025620,28.871708 226.537796,28.503372 
	C227.670242,27.688990 228.751312,26.327772 230.441528,27.438581 
	C230.047882,27.913939 229.654236,28.389296 228.948257,28.942419 
z"/>
<path fill="#FAFAF9" opacity="1.000000" stroke="none" 
	d="
M147.119034,152.812302 
	C146.884033,154.318024 147.075394,156.118118 145.345276,157.230499 
	C144.901901,155.523972 144.407043,153.908157 146.861252,152.835617 
	C147.219269,152.700485 146.992783,152.876007 147.119034,152.812302 
z"/>
<path fill="#FAFAF9" opacity="1.000000" stroke="none" 
	d="
M110.871338,165.385056 
	C111.377220,163.661728 110.082436,161.465424 112.530708,160.011780 
	C112.902382,159.902954 113.004204,160.001877 113.057098,160.050842 
	C113.072029,161.891388 112.465492,163.476227 111.117706,165.169769 
	C110.864716,165.455994 110.915039,165.377884 110.871338,165.385056 
z"/>
<path fill="#F7F7F4" opacity="1.000000" stroke="none" 
	d="
M210.416306,39.532684 
	C210.167984,41.473591 209.066757,41.887062 207.394043,41.479961 
	C207.661453,39.647942 208.862808,39.387276 210.416306,39.532684 
z"/>
<path fill="#FDFDFC" opacity="1.000000" stroke="none" 
	d="
M96.072769,211.478561 
	C96.269745,210.607117 96.376900,209.720520 96.778854,209.556519 
	C97.609612,209.217575 97.942032,210.050461 97.828651,210.681686 
	C97.679276,211.513351 97.594505,212.844955 96.072769,211.478561 
z"/>
<path fill="#5D5D5D" opacity="1.000000" stroke="none" 
	d="
M158.719009,85.088623 
	C158.515961,85.787125 158.016861,86.556900 157.473343,87.395203 
	C156.449997,85.963531 157.637558,85.654556 158.719009,85.088623 
z"/>
<path fill="#5D5D5D" opacity="1.000000" stroke="none" 
	d="
M182.571259,60.774368 
	C183.109146,59.616768 183.879639,58.905003 185.591629,58.659473 
	C184.817200,59.693222 184.299438,60.384357 183.516708,61.162300 
	C183.064667,61.181961 182.877563,61.114815 182.571259,60.774368 
z"/>
<path fill="#FDFDFC" opacity="1.000000" stroke="none" 
	d="
M94.530518,229.689819 
	C94.592155,230.454117 94.440666,230.996735 94.289185,231.539337 
	C93.934135,231.338699 93.361359,231.211044 93.265015,230.923676 
	C92.980431,230.074738 93.259048,229.441559 94.530518,229.689819 
z"/>
<path fill="#FDFDFC" opacity="1.000000" stroke="none" 
	d="
M95.012909,221.456818 
	C95.933815,222.089890 96.120842,222.764938 95.387741,223.408035 
	C95.233055,223.543747 94.744087,223.536896 94.592567,223.397049 
	C93.878319,222.737732 94.072388,222.067215 95.012909,221.456818 
z"/>
<path fill="#FDFDFC" opacity="1.000000" stroke="none" 
	d="
M101.654785,192.058655 
	C101.918610,192.910721 102.244568,193.980743 101.207764,194.482346 
	C101.016525,194.574844 100.348610,194.159683 100.241035,193.857651 
	C99.922989,192.964569 100.447166,192.407913 101.654785,192.058655 
z"/>
<path fill="#F8F8F6" opacity="1.000000" stroke="none" 
	d="
M186.462952,82.220352 
	C185.163483,82.506203 185.081619,81.912529 185.664368,81.357712 
	C186.116943,80.926849 186.849457,80.121765 187.540421,81.138168 
	C187.602127,81.228943 186.994919,81.774460 186.462952,82.220352 
z"/>
<path fill="#5D5D5D" opacity="1.000000" stroke="none" 
	d="
M132.093719,121.113602 
	C132.241928,119.730988 132.362350,118.387787 134.075760,118.035866 
	C134.598663,119.415901 133.606018,120.158989 132.762604,121.294312 
	C132.526276,121.555023 132.228500,121.269676 132.093719,121.113602 
z"/>
<path fill="#5D5D5D" opacity="1.000000" stroke="none" 
	d="
M134.898041,115.611542 
	C135.455017,114.857704 136.066986,114.210098 136.448242,114.961617 
	C136.641342,115.342247 136.060730,116.445885 135.543900,116.779327 
	C134.752365,117.290024 134.563828,116.654785 134.898041,115.611542 
z"/>
<path fill="#5D5D5D" opacity="1.000000" stroke="none" 
	d="
M126.658127,129.820465 
	C127.073547,128.480820 127.216736,127.104691 128.818954,126.799522 
	C129.577469,128.242508 128.163406,128.856567 127.472740,129.981110 
	C127.144348,130.135437 126.704620,130.040527 126.658127,129.820465 
z"/>
<path fill="#FDFDFC" opacity="1.000000" stroke="none" 
	d="
M98.582809,206.575851 
	C98.007942,207.289246 97.475288,207.631180 97.180992,206.762207 
	C97.070862,206.437027 97.286041,205.760651 97.563423,205.593277 
	C98.230598,205.190720 98.638428,205.571701 98.582809,206.575851 
z"/>
<path fill="#FDFDFC" opacity="1.000000" stroke="none" 
	d="
M95.944717,215.396133 
	C97.059776,216.088196 96.679443,216.694244 96.008690,217.195450 
	C95.875687,217.294815 95.365295,217.164764 95.283195,217.007629 
	C94.970421,216.409119 95.130295,215.849701 95.944717,215.396133 
z"/>
<path fill="#FAFAF9" opacity="1.000000" stroke="none" 
	d="
M141.632736,105.324692 
	C142.389725,105.033325 142.960297,104.920891 143.530869,104.808456 
	C143.630402,106.188545 142.537766,106.114967 141.678314,106.300072 
	C141.603104,106.316277 141.423416,106.105278 141.387009,105.973602 
	C141.348145,105.833160 141.421799,105.661598 141.632736,105.324692 
z"/>
<path fill="#525252" opacity="1.000000" stroke="none" 
	d="
M170.638580,103.828217 
	C171.116241,102.521873 171.252365,101.108864 172.833298,100.813446 
	C173.589661,102.237778 172.059174,102.815048 171.548401,104.042130 
	C171.084198,104.202713 170.908081,104.146103 170.638580,103.828217 
z"/>
<path fill="#FDFDFC" opacity="1.000000" stroke="none" 
	d="
M98.762428,202.269806 
	C97.924904,201.738953 97.994476,201.130951 98.528328,200.616638 
	C98.681618,200.468979 99.224693,200.459183 99.356125,200.601410 
	C99.945122,201.238739 99.566170,201.765030 98.762428,202.269806 
z"/>
<path fill="#FDFDFC" opacity="1.000000" stroke="none" 
	d="
M99.762329,198.272507 
	C98.922379,197.740128 98.991386,197.130035 99.527092,196.613846 
	C99.680870,196.465698 100.225677,196.455948 100.357719,196.598694 
	C100.949104,197.238022 100.568962,197.766022 99.762329,198.272507 
z"/>
<path fill="#FAFAF9" opacity="1.000000" stroke="none" 
	d="
M99.709229,163.760925 
	C100.372711,162.876511 101.027626,162.978363 101.524315,163.733505 
	C101.621300,163.880951 101.460365,164.386322 101.279785,164.493866 
	C100.656433,164.865112 100.162407,164.532700 99.709229,163.760925 
z"/>
<path fill="#5D5D5D" opacity="1.000000" stroke="none" 
	d="
M195.776611,69.978882 
	C195.635910,70.418152 195.279358,70.844795 194.922821,71.271439 
	C194.307663,70.431786 195.282150,70.369080 195.776611,69.978882 
z"/>
<path fill="#F7F7F4" opacity="1.000000" stroke="none" 
	d="
M168.500854,64.428665 
	C168.255264,63.691399 168.477356,63.317936 169.040817,63.368553 
	C169.245651,63.386951 169.570892,63.726009 169.581085,63.931652 
	C169.609100,64.496872 169.225693,64.702377 168.500854,64.428665 
z"/>
<path fill="#FDFDFC" opacity="1.000000" stroke="none" 
	d="
M101.945747,191.961731 
	C101.829941,191.193222 100.874557,190.608871 101.502975,189.745010 
	C101.559074,189.667877 101.809929,189.640915 101.905472,189.698425 
	C102.701233,190.177383 103.059921,190.803284 102.269424,191.861710 
	C102.049904,192.032486 101.980461,191.985336 101.945747,191.961731 
z"/>
<path fill="#F8F8F6" opacity="1.000000" stroke="none" 
	d="
M182.914856,85.723862 
	C183.203583,85.251686 183.681931,84.930893 184.188019,84.662361 
	C184.220871,84.644920 184.629913,85.080841 184.586472,85.217934 
	C184.357071,85.941933 183.741730,85.962494 182.914856,85.723862 
z"/>
<path fill="#5D5D5D" opacity="1.000000" stroke="none" 
	d="
M192.457672,53.227615 
	C192.224197,54.065224 191.715408,54.721657 191.058243,54.353680 
	C190.239456,53.895222 190.645386,53.286495 191.526581,52.815823 
	C191.954422,52.828072 192.141953,52.893391 192.457672,53.227615 
z"/>
<path fill="#F7F7F4" opacity="1.000000" stroke="none" 
	d="
M200.026794,46.365273 
	C200.334915,46.748146 200.378845,47.124889 200.422791,47.501633 
	C200.154160,47.496529 199.885529,47.491428 199.616882,47.486324 
	C199.665466,47.110596 199.714050,46.734867 200.026794,46.365273 
z"/>
<path fill="#5D5D5D" opacity="1.000000" stroke="none" 
	d="
M226.195633,39.887253 
	C225.773163,39.279980 226.239807,38.943726 226.783051,38.677742 
	C226.854675,38.642673 227.018127,38.795139 227.139053,38.860744 
	C226.887512,39.162430 226.635971,39.464123 226.195633,39.887253 
z"/>
<path fill="#F8F8F6" opacity="1.000000" stroke="none" 
	d="
M234.196335,35.236534 
	C233.553802,34.992508 232.606659,35.094440 232.476227,34.100616 
	C232.449783,33.899170 232.732849,33.477230 232.902603,33.460808 
	C233.668106,33.386742 233.879471,34.007179 234.189285,34.894836 
	C234.285477,35.207748 234.186020,35.186771 234.196335,35.236534 
z"/>
<path fill="#525252" opacity="1.000000" stroke="none" 
	d="
M168.125290,108.126038 
	C167.867676,106.757507 168.165955,105.310501 169.496078,105.766541 
	C170.826126,106.222549 169.433380,107.262283 168.946716,108.320206 
	C168.589493,108.506401 168.448715,108.407425 168.125290,108.126038 
z"/>
<path fill="#FBFBFB" opacity="1.000000" stroke="none" 
	d="
M186.763885,75.851288 
	C186.982635,76.169281 186.967957,76.342575 186.899872,76.771576 
	C185.742096,76.875229 184.678589,76.292511 185.230469,75.168175 
	C185.747711,74.114441 186.044174,75.574158 186.763885,75.851288 
z"/>
<path fill="#FAFAF9" opacity="1.000000" stroke="none" 
	d="
M96.084732,162.276550 
	C95.796371,162.748016 95.318832,163.068237 94.813576,163.336197 
	C94.780640,163.353653 94.372192,162.918396 94.415596,162.781769 
	C94.645042,162.059555 95.258949,162.037750 96.084732,162.276550 
z"/>
<path fill="#525252" opacity="1.000000" stroke="none" 
	d="
M174.183777,98.949142 
	C174.130844,99.534996 173.929382,99.907722 173.661179,100.223808 
	C173.631149,100.259193 173.032730,99.986130 173.022659,99.834511 
	C172.979431,99.184456 173.178650,98.637321 174.183777,98.949142 
z"/>
<path fill="#FBFBFB" opacity="1.000000" stroke="none" 
	d="
M152.951721,92.629547 
	C152.653519,92.261795 152.613113,91.895714 152.572693,91.529633 
	C152.834290,91.531799 153.095886,91.533966 153.357483,91.536125 
	C153.308151,91.901154 153.258835,92.266190 152.951721,92.629547 
z"/>
<path fill="#FCFCFB" opacity="1.000000" stroke="none" 
	d="
M132.303925,207.089020 
	C132.270432,206.526291 132.401367,206.126617 132.532318,205.726929 
	C132.642197,205.835648 132.861496,205.968811 132.843597,206.048935 
	C132.752243,206.457535 132.599579,206.852402 132.303925,207.089020 
z"/>
<path fill="#FBFBFB" opacity="1.000000" stroke="none" 
	d="
M162.886887,107.697464 
	C162.157425,108.559799 162.138016,107.851151 162.110733,107.490219 
	C162.092407,107.247894 162.351120,106.984619 162.485886,106.730721 
	C162.631378,106.977303 162.776871,107.223892 162.886887,107.697464 
z"/>
<path fill="#F8F8F6" opacity="1.000000" stroke="none" 
	d="
M176.372971,95.794983 
	C176.060181,96.156464 175.805054,96.297096 175.549927,96.437729 
	C175.473267,96.172546 175.251862,95.823418 175.347656,95.658211 
	C175.614243,95.198479 176.029816,95.097305 176.372971,95.794983 
z"/>
<path fill="#5D5D5D" opacity="1.000000" stroke="none" 
	d="
M126.291054,132.024353 
	C126.005646,132.160782 125.599815,131.977234 125.377739,131.962006 
	C125.485634,131.274734 125.815605,130.602722 126.378609,129.765533 
	C126.611641,129.600388 126.875641,129.870209 127.009995,130.002823 
	C126.955055,130.719604 126.765755,131.303772 126.291054,132.024353 
z"/>
<path fill="#FAFAF9" opacity="1.000000" stroke="none" 
	d="
M137.282654,111.842133 
	C137.573486,111.491241 137.833267,111.367821 138.093033,111.244400 
	C138.167847,111.493515 138.382858,111.838081 138.290680,111.973511 
	C138.034378,112.350029 137.654236,112.691910 137.282654,111.842133 
z"/>
<path fill="#FDFDFD" opacity="1.000000" stroke="none" 
	d="
M116.201492,168.346008 
	C115.857841,168.048782 115.724983,167.805405 115.592125,167.562027 
	C115.843925,167.489655 116.176033,167.279907 116.332161,167.371185 
	C116.765480,167.624512 116.875542,168.018433 116.201492,168.346008 
z"/>
<path fill="#FAFAF9" opacity="1.000000" stroke="none" 
	d="
M139.863434,108.278732 
	C140.700180,108.648499 140.365753,109.026077 139.990982,109.281502 
	C139.857483,109.372490 139.516418,109.158920 139.270096,109.084373 
	C139.392715,108.826485 139.515335,108.568596 139.863434,108.278732 
z"/>
<path fill="#FDFDFC" opacity="1.000000" stroke="none" 
	d="
M102.385651,187.226669 
	C102.528419,186.790604 102.806381,186.524521 103.103043,186.281235 
	C103.115295,186.271179 103.302696,186.474686 103.408501,186.578720 
	C103.113739,186.852737 102.818970,187.126755 102.385651,187.226669 
z"/>
<path fill="#FBFBFB" opacity="1.000000" stroke="none" 
	d="
M181.110382,72.303909 
	C181.846466,71.434380 181.864609,72.150345 181.892227,72.513313 
	C181.910797,72.757439 181.650192,73.022820 181.514496,73.278694 
	C181.367889,73.030029 181.221283,72.781357 181.110382,72.303909 
z"/>
<path fill="#F8F8F6" opacity="1.000000" stroke="none" 
	d="
M238.166702,32.146759 
	C237.438812,31.726019 236.953476,31.114275 237.170013,30.181444 
	C237.187149,30.107594 237.784607,30.072701 237.794128,30.107300 
	C237.922165,30.572409 237.993622,31.053093 238.130463,31.849186 
	C238.181824,32.168461 238.147079,32.102318 238.166702,32.146759 
z"/>
<path fill="#FBFBFB" opacity="1.000000" stroke="none" 
	d="
M149.280640,101.136261 
	C149.648453,100.304390 150.024567,100.635353 150.278656,101.009178 
	C150.369278,101.142502 150.156540,101.482018 150.082275,101.727417 
	C149.825714,101.605156 149.569138,101.482903 149.280640,101.136261 
z"/>
<path fill="#5D5D5D" opacity="1.000000" stroke="none" 
	d="
M178.965393,64.168556 
	C179.259644,63.461258 179.629929,63.027466 180.237610,62.423943 
	C180.660217,62.337139 180.845459,62.420067 181.070892,62.804779 
	C180.734848,63.553482 180.358612,64.000412 179.737305,64.617287 
	C179.341980,64.672188 179.191711,64.557129 178.965393,64.168556 
z"/>
<path fill="#FAFAF9" opacity="1.000000" stroke="none" 
	d="
M139.606201,171.283081 
	C139.441971,171.153763 139.417801,170.929260 139.393631,170.704773 
	C139.511185,170.865814 139.628723,171.026855 139.606201,171.283081 
z"/>
<path fill="#F8F8F6" opacity="1.000000" stroke="none" 
	d="
M191.040512,78.979660 
	C191.556488,79.331039 192.255707,79.672447 191.442230,80.370239 
	C191.283905,80.113777 191.125580,79.857323 190.913116,79.366409 
	C190.858994,79.131958 190.977722,79.027657 191.040512,78.979660 
z"/>
<path fill="#5D5D5D" opacity="1.000000" stroke="none" 
	d="
M176.393814,70.093590 
	C175.961639,69.743706 175.927734,69.486046 175.932114,68.840469 
	C176.821884,68.636665 177.822083,68.733009 177.792343,69.901764 
	C177.774643,70.597382 177.172211,70.225357 176.393814,70.093590 
z"/>
<path fill="#FAFAF9" opacity="1.000000" stroke="none" 
	d="
M103.988785,164.226624 
	C104.106674,164.404266 104.049271,164.583603 103.991867,164.762955 
	C103.932411,164.584747 103.872948,164.406555 103.988785,164.226624 
z"/>
<path fill="#FCFCFB" opacity="1.000000" stroke="none" 
	d="
M134.648285,195.733032 
	C134.633453,195.991623 134.495300,196.132828 134.357132,196.274017 
	C134.413071,196.054565 134.469009,195.835098 134.648285,195.733032 
z"/>
<path fill="#FCFCFB" opacity="1.000000" stroke="none" 
	d="
M133.605438,201.286209 
	C133.439941,201.155884 133.415436,200.929596 133.390930,200.703308 
	C133.509430,200.865616 133.627914,201.027939 133.605438,201.286209 
z"/>
<path fill="#F7F7F4" opacity="1.000000" stroke="none" 
	d="
M223.377518,30.688210 
	C223.559891,30.828930 223.588806,31.076759 223.617722,31.324587 
	C223.486511,31.148165 223.355286,30.971745 223.377518,30.688210 
z"/>
<path fill="#5D5D5D" opacity="1.000000" stroke="none" 
	d="
M164.707993,77.725204 
	C165.163574,77.744049 165.336075,77.859673 165.820709,77.973572 
	C165.752808,78.408829 165.372726,78.845802 164.758636,79.452316 
	C164.346512,79.535843 164.168427,79.449844 163.895035,79.082916 
	C164.008118,78.475327 164.216522,78.148651 164.707993,77.725204 
z"/>
<path fill="#F7F7F4" opacity="1.000000" stroke="none" 
	d="
M212.625748,38.328346 
	C212.433334,38.181503 212.401993,37.921757 212.370667,37.662006 
	C212.509384,37.846481 212.648102,38.030960 212.625748,38.328346 
z"/>
<path fill="#FCFCFB" opacity="1.000000" stroke="none" 
	d="
M135.351212,191.268860 
	C135.366028,191.009247 135.504669,190.867462 135.643311,190.725677 
	C135.587219,190.945999 135.531128,191.166351 135.351212,191.268860 
z"/>
<path fill="#FCFCFB" opacity="1.000000" stroke="none" 
	d="
M136.393723,186.712677 
	C136.560272,186.843674 136.585052,187.071259 136.609848,187.298859 
	C136.490555,187.135666 136.371246,186.972458 136.393723,186.712677 
z"/>
<path fill="#FCFCFB" opacity="1.000000" stroke="none" 
	d="
M137.765839,182.988892 
	C137.593216,183.103226 137.418976,183.047348 137.244720,182.991486 
	C137.417892,182.933899 137.591049,182.876297 137.765839,182.988892 
z"/>
<path fill="#FCFCFB" opacity="1.000000" stroke="none" 
	d="
M138.765991,178.988907 
	C138.593262,179.103317 138.418930,179.047440 138.244598,178.991547 
	C138.417847,178.933899 138.591110,178.876251 138.765991,178.988907 
z"/>
<path fill="#FCFCFB" opacity="1.000000" stroke="none" 
	d="
M147.010864,176.767639 
	C146.895660,176.593811 146.951904,176.418350 147.008148,176.242905 
	C147.066193,176.417267 147.124252,176.591644 147.010864,176.767639 
z"/>
<path fill="#F7F7F4" opacity="1.000000" stroke="none" 
	d="
M203.385223,43.691284 
	C203.564392,43.830414 203.592407,44.074402 203.620407,44.318390 
	C203.491638,44.144302 203.362854,43.970222 203.385223,43.691284 
z"/>
<path fill="#5D5D5D" opacity="1.000000" stroke="none" 
	d="
M158.943161,84.959808 
	C158.940643,84.568512 158.963806,84.194138 159.239136,83.620422 
	C159.682968,83.493912 159.874619,83.566742 160.148224,83.935989 
	C160.014526,84.541405 159.798889,84.850388 159.299164,85.088364 
	C159.015060,85.017349 158.968842,84.976730 158.943161,84.959808 
z"/>
<path fill="#5D5D5D" opacity="1.000000" stroke="none" 
	d="
M213.476471,50.767487 
	C213.595627,50.205154 213.821457,49.933800 214.267151,49.512970 
	C214.681335,49.439552 214.875641,49.515606 215.135986,49.897614 
	C215.024048,50.479595 214.846100,50.755623 214.428452,51.111015 
	C213.986877,51.146408 213.785004,51.102440 213.476471,50.767487 
z"/>
<path fill="#525252" opacity="1.000000" stroke="none" 
	d="
M171.082520,104.085205 
	C170.968002,104.597908 170.675674,104.936501 170.383362,105.275093 
	C170.263885,104.869949 170.144409,104.464798 170.285065,103.813293 
	C170.545197,103.566933 170.904709,103.911102 171.082520,104.085205 
z"/>
<path fill="#5D5D5D" opacity="1.000000" stroke="none" 
	d="
M214.659271,49.579037 
	C214.631363,49.098167 214.828751,48.881054 215.277161,48.612404 
	C215.608047,48.636307 215.740982,48.759953 216.069717,49.072830 
	C216.073090,49.528477 215.880646,49.794899 215.445099,50.132446 
	C215.078522,50.067238 214.955032,49.930908 214.659271,49.579037 
z"/>
<path fill="#F8F8F6" opacity="1.000000" stroke="none" 
	d="
M180.969421,88.951118 
	C181.078949,88.871765 181.252930,88.046143 181.243423,88.998672 
	C181.107666,89.080757 181.011566,88.998360 180.969421,88.951118 
z"/>
<path fill="#5D5D5D" opacity="1.000000" stroke="none" 
	d="
M159.672668,83.626968 
	C159.686752,83.143951 159.882202,82.866814 160.287613,82.444504 
	C160.693298,82.375145 160.889008,82.450951 161.123383,82.839203 
	C161.008362,83.446144 160.854691,83.740646 160.465576,84.133789 
	C160.104797,84.099228 159.979431,83.966034 159.672668,83.626968 
z"/>
<path fill="#5D5D5D" opacity="1.000000" stroke="none" 
	d="
M225.999527,39.999535 
	C225.902145,40.517376 225.880554,41.171127 225.084122,40.743149 
	C224.998627,40.697193 225.212753,40.093651 225.647369,39.878723 
	C226.006836,40.008690 226.000290,40.000366 225.999527,39.999535 
z"/>
<path fill="#5D5D5D" opacity="1.000000" stroke="none" 
	d="
M160.652222,82.521355 
	C160.868790,82.104874 161.240005,81.910408 161.611221,81.715950 
	C161.651749,82.092522 161.692276,82.469086 161.447418,82.998650 
	C161.043655,83.015556 160.925262,82.879463 160.652222,82.521355 
z"/>
<path fill="#5D5D5D" opacity="1.000000" stroke="none" 
	d="
M222.895325,42.216812 
	C223.235641,41.600861 223.585251,41.310917 223.934845,41.020973 
	C223.974854,41.429295 224.014862,41.837616 223.789520,42.496384 
	C223.317657,42.678829 223.111145,42.610828 222.895325,42.216812 
z"/>
<path fill="#5D5D5D" opacity="1.000000" stroke="none" 
	d="
M221.879700,43.138260 
	C222.017380,42.560654 222.206619,42.291798 222.640961,41.956875 
	C223.001343,42.026497 223.116638,42.162189 223.378067,42.522358 
	C223.341522,42.992237 223.135437,43.216072 222.712372,43.540699 
	C222.322968,43.591049 222.127106,43.519035 221.879700,43.138260 
z"/>
<path fill="#5D5D5D" opacity="1.000000" stroke="none" 
	d="
M194.511429,50.782478 
	C194.795029,50.241955 195.193375,49.985634 195.591705,49.729313 
	C195.689835,50.130085 195.787964,50.530857 195.552383,51.077702 
	C195.021164,51.171406 194.823654,51.119041 194.511429,50.782478 
z"/>
<path fill="#5D5D5D" opacity="1.000000" stroke="none" 
	d="
M220.963287,43.953987 
	C220.955902,43.497898 221.147430,43.230610 221.583557,42.896416 
	C221.948624,42.963745 222.069077,43.097977 222.354187,43.447639 
	C222.373032,43.914795 222.182053,44.125603 221.759247,44.401119 
	C221.435760,44.385433 221.298981,44.264111 220.963287,43.953987 
z"/>
<path fill="#5D5D5D" opacity="1.000000" stroke="none" 
	d="
M179.479523,71.495926 
	C179.501251,71.501366 179.457779,71.490494 179.479523,71.495926 
z"/>
<path fill="#FBFBFB" opacity="1.000000" stroke="none" 
	d="
M183.532593,74.551102 
	C183.476166,74.584877 183.589035,74.517334 183.532593,74.551102 
z"/>
<path fill="#F8F8F6" opacity="1.000000" stroke="none" 
	d="
M190.964630,75.941574 
	C191.079376,75.834122 191.285385,75.053596 191.252731,76.001633 
	C191.116745,76.084892 191.010635,75.994110 190.964630,75.941574 
z"/>
<path fill="#5D5D5D" opacity="1.000000" stroke="none" 
	d="
M196.026154,70.017853 
	C195.935745,69.751152 195.794312,69.482918 195.745438,69.198776 
	C195.723526,69.071266 195.886902,68.911903 196.236786,68.515068 
	C196.706390,68.340942 196.905426,68.418739 197.125916,68.816360 
	C196.952896,69.456299 196.758408,69.776398 196.278198,70.044006 
	C195.992477,69.991516 196.012848,70.009834 196.026154,70.017853 
z"/>
<path fill="#5D5D5D" opacity="1.000000" stroke="none" 
	d="
M151.819717,138.947723 
	C152.112732,138.853790 152.270569,138.907562 152.676575,138.992554 
	C152.985031,139.376984 152.893433,139.685059 152.444901,140.087982 
	C152.104065,140.096268 151.968262,139.964523 151.638245,139.624207 
	C151.444031,139.415649 151.684555,139.095459 151.819717,138.947723 
z"/>
<path fill="#5D5D5D" opacity="1.000000" stroke="none" 
	d="
M162.883087,80.205231 
	C163.026291,79.589813 163.177338,79.293808 163.564056,78.899902 
	C163.923950,78.935448 164.048187,79.068901 164.348511,79.412094 
	C164.322876,79.900513 164.121140,80.179184 163.704819,80.602180 
	C163.290466,80.672562 163.090698,80.598602 162.883087,80.205231 
z"/>
<path fill="#5D5D5D" opacity="1.000000" stroke="none" 
	d="
M196.653107,68.491852 
	C196.876556,68.082756 197.245758,67.902367 197.614944,67.721970 
	C197.646378,68.093391 197.677811,68.464813 197.428314,68.986221 
	C197.031204,68.997658 196.915024,68.859108 196.653107,68.491852 
z"/>
<path fill="#5D5D5D" opacity="1.000000" stroke="none" 
	d="
M199.600037,66.231339 
	C199.316620,66.813766 198.931381,67.092255 198.546158,67.370743 
	C198.445328,66.987122 198.344498,66.603500 198.552231,66.039398 
	C199.073273,65.881744 199.285736,65.904572 199.600037,66.231339 
z"/>
<path fill="#5D5D5D" opacity="1.000000" stroke="none" 
	d="
M177.461029,66.224533 
	C177.181808,66.779121 176.795319,67.046295 176.408813,67.313469 
	C176.314117,66.905777 176.219421,66.498093 176.444458,65.928696 
	C176.960709,65.823700 177.157211,65.880409 177.461029,66.224533 
z"/>
<path fill="#5D5D5D" opacity="1.000000" stroke="none" 
	d="
M200.498627,65.225853 
	C200.474442,65.795197 200.291748,66.039932 199.880737,66.391510 
	C199.556442,66.429070 199.411026,66.322853 199.063202,66.037781 
	C199.014236,65.566925 199.167664,65.274933 199.556396,64.887863 
	C199.991013,64.841263 200.190308,64.889717 200.498627,65.225853 
z"/>
<path fill="#5D5D5D" opacity="1.000000" stroke="none" 
	d="
M178.566345,65.232590 
	C178.448456,65.771675 178.223648,66.014709 177.783569,66.384850 
	C177.432541,66.389687 177.296768,66.267418 176.962585,65.956070 
	C176.958374,65.500206 177.152542,65.233421 177.592499,64.900475 
	C178.045334,64.868385 178.252396,64.902466 178.566345,65.232590 
z"/>
<path fill="#F7F7F4" opacity="1.000000" stroke="none" 
	d="
M172.453735,65.436592 
	C172.525528,65.389175 172.547150,65.581169 172.547150,65.581169 
	C172.547150,65.581169 172.381958,65.484009 172.453735,65.436592 
z"/>
<path fill="#5D5D5D" opacity="1.000000" stroke="none" 
	d="
M200.947784,63.974827 
	C201.044296,64.185501 201.208893,64.404022 201.286362,64.649986 
	C201.319946,64.756615 201.173950,64.919785 200.858582,65.285400 
	C200.468628,65.396843 200.329620,65.280144 199.991150,64.978119 
	C200.016235,64.480576 200.240753,64.168343 200.749298,63.952087 
	C201.033310,64.048065 200.980530,63.993801 200.947784,63.974827 
z"/>
<path fill="#5D5D5D" opacity="1.000000" stroke="none" 
	d="
M179.359436,64.552078 
	C179.349548,64.991913 179.180099,65.171280 178.828583,65.427002 
	C178.529419,65.418549 178.385559,65.308464 178.040009,65.016350 
	C178.026093,64.565804 178.213898,64.297295 178.645508,63.961914 
	C179.001785,64.035667 179.114212,64.176292 179.359436,64.552078 
z"/>
<path fill="#5D5D5D" opacity="1.000000" stroke="none" 
	d="
M195.017914,51.037041 
	C194.886978,51.486145 194.555267,51.748512 194.223572,52.010880 
	C194.109741,51.652302 193.995911,51.293728 194.139389,50.716717 
	C194.536850,50.615616 194.676987,50.732960 195.017914,51.037041 
z"/>
<path fill="#5D5D5D" opacity="1.000000" stroke="none" 
	d="
M163.351959,80.520271 
	C163.122299,80.922157 162.754395,81.097801 162.386475,81.273445 
	C162.360397,80.904961 162.334320,80.536469 162.591736,80.026901 
	C162.988052,80.021881 163.100876,80.157959 163.351959,80.520271 
z"/>
<path fill="#525252" opacity="1.000000" stroke="none" 
	d="
M169.438019,110.663475 
	C169.847092,111.045250 170.474670,111.795731 168.982117,111.373283 
	C168.968994,111.057518 169.098022,110.938904 169.438019,110.663475 
z"/>
<path fill="#5D5D5D" opacity="1.000000" stroke="none" 
	d="
M182.124557,61.870735 
	C181.987579,62.446388 181.795456,62.713486 181.357208,63.043568 
	C180.996109,62.971500 180.881119,62.836445 180.620560,62.477806 
	C180.657394,62.008804 180.864075,61.785881 181.288727,61.463699 
	C181.678116,61.415356 181.873764,61.488766 182.124557,61.870735 
z"/>
<path fill="#5D5D5D" opacity="1.000000" stroke="none" 
	d="
M181.649231,61.557564 
	C181.629654,61.085644 181.824814,60.873466 182.259995,60.603237 
	C182.586899,60.624084 182.721725,60.747101 183.054153,61.059616 
	C183.057755,61.515022 182.863754,61.780933 182.424713,62.113068 
	C182.058472,62.043922 181.937225,61.908554 181.649231,61.557564 
z"/>
<path fill="#5D5D5D" opacity="1.000000" stroke="none" 
	d="
M204.694122,59.662159 
	C204.640839,59.153713 204.829254,58.888245 205.280121,58.527573 
	C205.677856,58.464291 205.871185,58.537403 206.137497,58.911865 
	C206.047058,59.498127 205.883652,59.783047 205.487061,60.163681 
	C205.128525,60.127583 205.003159,59.995762 204.694122,59.662159 
z"/>
<path fill="#5D5D5D" opacity="1.000000" stroke="none" 
	d="
M205.661407,58.600735 
	C205.634995,58.104935 205.833374,57.856995 206.281647,57.518867 
	C206.677017,57.463177 206.870377,57.535969 207.136169,57.910107 
	C207.035538,58.490742 206.862473,58.770035 206.449936,59.131271 
	C206.086426,59.078907 205.962372,58.944599 205.661407,58.600735 
z"/>
<path fill="#5D5D5D" opacity="1.000000" stroke="none" 
	d="
M208.134369,56.906792 
	C208.033112,57.487934 207.860382,57.767605 207.448120,58.129364 
	C207.084686,58.077515 206.960754,57.943577 206.660248,57.600006 
	C206.634933,57.104496 206.833389,56.856358 207.280853,56.516899 
	C207.676071,56.460331 207.869492,56.532825 208.134369,56.906792 
z"/>
<path fill="#5D5D5D" opacity="1.000000" stroke="none" 
	d="
M209.132416,55.902618 
	C209.030182,56.484253 208.857666,56.764236 208.445496,57.126240 
	C208.082123,57.074497 207.958405,56.940739 207.658676,56.597404 
	C207.635101,56.102661 207.833801,55.854515 208.280304,55.513817 
	C208.675308,55.456478 208.868744,55.528721 209.132416,55.902618 
z"/>
<path fill="#5D5D5D" opacity="1.000000" stroke="none" 
	d="
M208.657166,55.593552 
	C208.635513,55.100151 208.834274,54.852222 209.279205,54.510338 
	C209.673996,54.452145 209.867722,54.524059 210.130249,54.898209 
	C210.026749,55.480530 209.854462,55.760620 209.442429,56.122490 
	C209.079285,56.070473 208.955872,55.936676 208.657166,55.593552 
z"/>
<path fill="#5D5D5D" opacity="1.000000" stroke="none" 
	d="
M211.128342,53.893463 
	C211.023392,54.476524 210.851120,54.756809 210.438950,55.118767 
	C210.075821,55.066917 209.952591,54.933395 209.654816,54.590050 
	C209.635574,54.097187 209.834702,53.849358 210.278458,53.506088 
	C210.673172,53.447182 210.867111,53.518936 211.128342,53.893463 
z"/>
<path fill="#5D5D5D" opacity="1.000000" stroke="none" 
	d="
M210.653015,53.585289 
	C210.636139,53.093761 210.835495,52.846298 211.277649,52.501945 
	C211.672226,52.442471 211.866470,52.514091 212.126617,52.889198 
	C212.020233,53.472935 211.847961,53.753189 211.435669,54.114845 
	C211.072693,54.062542 210.949738,53.928844 210.653015,53.585289 
z"/>
<path fill="#5D5D5D" opacity="1.000000" stroke="none" 
	d="
M211.651062,52.581131 
	C211.637619,52.089615 211.838455,51.841766 212.281708,51.495926 
	C212.676270,51.437382 212.869659,51.510212 213.127090,51.886307 
	C213.018463,52.469833 212.845779,52.750099 212.432800,53.111519 
	C212.069733,53.058926 211.946945,52.925167 211.651062,52.581131 
z"/>
<path fill="#5D5D5D" opacity="1.000000" stroke="none" 
	d="
M191.967545,52.950752 
	C192.104355,52.501720 192.441803,52.240681 192.779266,51.979645 
	C192.890854,52.341942 193.002441,52.704239 192.849930,53.281525 
	C192.446625,53.377258 192.307404,53.258003 191.967545,52.950752 
z"/>
<path fill="#5D5D5D" opacity="1.000000" stroke="none" 
	d="
M213.989258,51.005905 
	C214.016251,51.469883 213.843750,51.749390 213.431198,52.109230 
	C213.068817,52.055973 212.946503,51.922371 212.653534,51.576656 
	C212.617477,51.111172 212.795593,50.893414 213.193542,50.593895 
	C213.509781,50.591484 213.649765,50.706459 213.989258,51.005905 
z"/>
<path fill="#525252" opacity="1.000000" stroke="none" 
	d="
M93.810989,294.437347 
	C93.571632,291.880585 92.572891,289.835144 93.873001,287.520386 
	C95.197044,295.922638 96.521088,304.324890 97.845131,312.727142 
	C95.225281,307.048309 94.561768,300.955597 93.810989,294.437347 
z"/>
<path fill="#969696" opacity="1.000000" stroke="none" 
	d="
M126.802437,257.752319 
	C127.321892,257.236420 127.824318,257.162872 128.712128,257.118469 
	C129.014893,261.363739 128.932312,265.579803 128.869400,270.240479 
	C128.636169,271.258179 128.203201,271.480103 127.350525,271.018280 
	C127.002350,266.521973 126.893883,262.358307 126.802437,257.752319 
z"/>
<path fill="#525252" opacity="1.000000" stroke="none" 
	d="
M130.065063,295.667236 
	C129.117142,292.655090 128.635101,290.023438 129.573929,286.745087 
	C132.015991,290.649597 130.460983,294.825195 132.506104,298.594696 
	C130.242310,298.315155 130.329590,297.091583 130.065063,295.667236 
z"/>
<path fill="#969696" opacity="1.000000" stroke="none" 
	d="
M91.989517,276.325928 
	C92.108063,275.895905 92.588730,276.011536 92.835907,276.009552 
	C94.875092,278.589386 93.807930,281.239624 93.333954,285.256561 
	C91.737503,281.713287 91.988846,279.198303 91.989517,276.325928 
z"/>
<path fill="#FDFDFC" opacity="1.000000" stroke="none" 
	d="
M144.027512,349.211914 
	C145.275650,348.772552 145.559860,348.880005 145.739288,349.551147 
	C145.910797,350.192719 146.108902,351.152832 145.403610,351.238831 
	C144.478027,351.351746 144.177643,350.363556 144.027512,349.211914 
z"/>
<path fill="#FDFDFC" opacity="1.000000" stroke="none" 
	d="
M103.803970,336.193268 
	C103.765427,337.169647 103.388474,337.776733 102.723846,337.461853 
	C102.394951,337.306061 102.146736,336.332794 102.317757,335.916656 
	C102.592514,335.248047 103.245941,335.312622 103.803970,336.193268 
z"/>
<path fill="#FDFDFC" opacity="1.000000" stroke="none" 
	d="
M128.471039,284.307129 
	C128.094818,283.404388 128.103760,282.747742 128.887665,282.495850 
	C129.098801,282.427979 129.611420,282.679138 129.676224,282.882477 
	C129.951614,283.746674 129.932190,284.537445 128.471039,284.307129 
z"/>
<path fill="#FDFDFC" opacity="1.000000" stroke="none" 
	d="
M129.667664,278.914795 
	C128.737289,278.128479 128.886124,277.110504 129.386765,275.819275 
	C130.273529,276.799347 129.967239,277.782623 129.667664,278.914795 
z"/>
<path fill="#FDFDFC" opacity="1.000000" stroke="none" 
	d="
M138.975403,330.710632 
	C138.109375,330.901794 137.198044,330.742981 137.375458,329.633789 
	C137.431763,329.281708 138.015869,329.014069 138.358444,328.707764 
	C138.581421,329.255249 138.804398,329.802734 138.975403,330.710632 
z"/>
<path fill="#FDFDFC" opacity="1.000000" stroke="none" 
	d="
M142.972748,343.714813 
	C142.106903,343.903900 141.196213,343.739563 141.373520,342.636841 
	C141.430145,342.284790 142.011780,342.017181 142.353210,341.710968 
	C142.579071,342.255707 142.804932,342.800415 142.972748,343.714813 
z"/>
<path fill="#FDFDFC" opacity="1.000000" stroke="none" 
	d="
M146.873230,355.289520 
	C147.886749,355.647614 148.267258,356.464661 147.460907,357.422272 
	C147.343201,357.562042 146.771408,357.544250 146.620819,357.391388 
	C146.059967,356.822174 146.442459,356.218658 146.873230,355.289520 
z"/>
<path fill="#FDFDFC" opacity="1.000000" stroke="none" 
	d="
M127.103851,271.023590 
	C127.507919,270.733307 127.905022,270.780975 128.595596,270.756836 
	C128.704071,271.285706 128.685760,272.222656 128.298218,272.414795 
	C127.566200,272.777649 127.209709,272.066040 127.103851,271.023590 
z"/>
<path fill="#FDFDFC" opacity="1.000000" stroke="none" 
	d="
M99.395264,322.464966 
	C98.572609,322.699768 98.280457,322.407593 98.403320,321.773041 
	C98.428917,321.640808 98.616631,321.462219 98.750389,321.441956 
	C99.393921,321.344391 99.664139,321.656555 99.395264,322.464966 
z"/>
<path fill="#FDFDFC" opacity="1.000000" stroke="none" 
	d="
M99.528915,326.392029 
	C99.293053,325.566803 99.584183,325.272095 100.222198,325.396729 
	C100.355301,325.422729 100.535599,325.610107 100.555603,325.743774 
	C100.651947,326.387878 100.340515,326.661621 99.528915,326.392029 
z"/>
<path fill="#FDFDFC" opacity="1.000000" stroke="none" 
	d="
M139.020172,330.991577 
	C139.891663,331.636810 140.229187,332.435730 139.565277,333.393311 
	C139.474762,333.523895 139.050522,333.423126 138.780792,333.429443 
	C138.829971,332.834381 138.879150,332.239349 138.925873,331.357666 
	C138.923431,331.071075 138.986481,331.016266 139.020172,330.991577 
z"/>
<path fill="#FDFDFC" opacity="1.000000" stroke="none" 
	d="
M104.798172,342.650970 
	C105.143875,342.949921 105.277588,343.194672 105.411301,343.439453 
	C105.157944,343.512360 104.823814,343.723541 104.666672,343.631714 
	C104.230301,343.376862 104.121048,342.980408 104.798172,342.650970 
z"/>
<path fill="#FDFDFC" opacity="1.000000" stroke="none" 
	d="
M107.293633,352.135864 
	C107.652122,351.328705 108.019745,351.646362 108.267685,352.012787 
	C108.356140,352.143524 108.148491,352.474670 108.076004,352.714325 
	C107.825890,352.594391 107.575775,352.474487 107.293633,352.135864 
z"/>
<path fill="#FDFDFC" opacity="1.000000" stroke="none" 
	d="
M131.771759,301.382568 
	C132.209290,301.525787 132.476364,301.804901 132.720276,302.102966 
	C132.730682,302.115692 132.526459,302.304016 132.422211,302.410553 
	C132.147156,302.114380 131.872101,301.818176 131.771759,301.382568 
z"/>
<path fill="#FDFDFC" opacity="1.000000" stroke="none" 
	d="
M112.506393,362.534393 
	C112.088860,362.608643 111.831291,362.526031 111.573715,362.443451 
	C111.861404,362.162170 112.149101,361.880890 112.436798,361.599640 
	C112.513313,361.858948 112.589836,362.118256 112.506393,362.534393 
z"/>
<path fill="#FDFDFC" opacity="1.000000" stroke="none" 
	d="
M146.946747,355.051147 
	C146.498032,354.922150 146.082565,354.756989 145.667084,354.591827 
	C146.005920,353.960541 146.386002,354.254730 146.902496,354.739716 
	C147.039169,354.936554 146.980011,355.014984 146.946747,355.051147 
z"/>
<path fill="#FDFDFC" opacity="1.000000" stroke="none" 
	d="
M136.352310,321.265839 
	C136.367111,321.008545 136.504654,320.868073 136.642212,320.727600 
	C136.586487,320.945953 136.530762,321.164307 136.352310,321.265839 
z"/>
<path fill="#FDFDFC" opacity="1.000000" stroke="none" 
	d="
M134.647430,311.734192 
	C134.632629,311.991089 134.495316,312.131348 134.358002,312.271606 
	C134.413635,312.053589 134.469284,311.835602 134.647430,311.734192 
z"/>
<path fill="#FDFDFC" opacity="1.000000" stroke="none" 
	d="
M141.351562,339.267151 
	C141.366440,339.008545 141.504684,338.867371 141.642944,338.726166 
	C141.586929,338.945618 141.530914,339.165100 141.351562,339.267151 
z"/>
<path fill="#FDFDFC" opacity="1.000000" stroke="none" 
	d="
M147.735535,359.352264 
	C147.991638,359.367035 148.131424,359.504089 148.271210,359.641113 
	C148.053879,359.585602 147.836548,359.530060 147.735535,359.352264 
z"/>
<path fill="#FDFDFC" opacity="1.000000" stroke="none" 
	d="
M137.394470,324.713684 
	C137.560028,324.844055 137.584564,325.070435 137.609116,325.296814 
	C137.490555,325.134460 137.371994,324.972076 137.394470,324.713684 
z"/>
<path fill="#FDFDFC" opacity="1.000000" stroke="none" 
	d="
M143.024933,343.989075 
	C143.480209,344.342285 144.256317,344.633026 143.415771,345.337067 
	C143.274567,345.075958 143.133377,344.814850 142.953445,344.319092 
	C142.914719,344.084473 142.986221,344.018524 143.024933,343.989075 
z"/>
<path fill="#FDFDFC" opacity="1.000000" stroke="none" 
	d="
M140.533676,335.551025 
	C140.476608,335.585541 140.590744,335.516510 140.533676,335.551025 
z"/>
<path fill="#FDFDFC" opacity="1.000000" stroke="none" 
	d="
M91.102570,258.390717 
	C91.304779,258.313660 91.594238,258.397308 91.826622,258.732666 
	C91.534454,258.896088 91.341209,258.751770 91.102570,258.390717 
z"/>
</svg>